<svg width="56" height="53" viewBox="0 0 56 53" fill="#242424" xmlns="http://www.w3.org/2000/svg">
<path d="M16.6015 51.5584C10.7246 50.0429 5.1534 47.9886 0 44.6064C0.469035 43.5671 1.21531 43.1267 1.82758 42.5755C5.91792 38.8927 8.19193 34.3676 8.4763 28.4076C8.82574 21.084 14.5716 13.8399 21.0158 11.7341C24.1217 10.7191 27.2496 10.2657 30.445 11.0972C31.2226 11.2995 31.7853 11.0137 32.3581 10.523C36.126 7.29572 39.8989 4.07538 43.6754 0.859934C45.0371 -0.299575 46.4344 -0.316585 47.665 0.992613C50.216 3.70644 52.7259 6.46832 55.1952 9.27083C56.3052 10.5306 56.253 11.8989 55.1252 13.5099C52.5657 17.1661 50.015 20.8318 47.3687 24.4125C46.2169 25.9709 45.7263 27.3603 46.0034 29.5574C47.0739 38.0452 42.8259 46.4008 35.8275 50.4816C31.4454 53.0368 26.8085 53.4291 22.0035 52.6262C20.2277 52.3294 18.4402 52.1036 16.6015 51.5584ZM19.9906 46.3127C20.9989 46.4825 22.0024 46.7178 23.0167 46.8094C25.7926 47.0603 28.6176 47.3441 31.2822 46.2826C36.3107 44.2794 39.6322 40.4039 40.4956 34.5839C41.3583 28.7685 39.8822 23.6195 35.4321 19.939C31.0453 16.3109 26.185 15.4124 21.1304 18.0569C16.4599 20.5005 14.1021 24.7828 13.6863 30.4067C13.3852 34.479 12.3367 38.2921 10.1222 41.6568C9.87353 42.0346 9.47668 42.375 9.62699 43.0444C12.8698 44.5542 16.2857 45.5636 19.9906 46.3127ZM40.2595 11.2426C40.1311 11.3531 40 11.4601 39.8746 11.5746C37.5861 13.6644 37.5816 13.6696 39.7178 16.008C40.9462 17.3528 42.1927 18.6779 43.5535 20.1437C45.5483 17.3388 47.4305 14.709 49.291 12.0611C49.6433 11.5597 49.3377 11.125 49.0083 10.7652C48.0545 9.7234 47.0714 8.71295 46.1339 7.65418C45.5983 7.04924 45.1433 7.06569 44.5567 7.58532C43.1921 8.7943 41.7884 9.95062 40.2595 11.2426Z" fill="#242424"/>
</svg>
