    <svg
      width="20"
      height="20"
      viewBox="0 0 20 20"
      fill="none"
      xmlns="http://www.w3.org/2000/svg"
    >
      <path
        d="M10.8136 5.912C12.4447 4.27518 14.0678 2.64989 15.6859 1.01963C15.979 0.724326 16.2594 0.420862 16.6454 0.239379C18.2025 -0.492877 20.004 0.556502 19.99 2.35228C19.9853 2.95477 19.7645 3.4885 19.327 3.92567C17.3719 5.87947 15.4209 7.83749 13.4686 9.79421C13.2747 9.98849 13.2712 9.99342 13.4557 10.1789C14.7962 11.5268 16.1379 12.8737 17.4807 14.2193C18.0903 14.83 18.7161 15.425 19.3114 16.0493C19.9596 16.7291 20.1681 17.5374 19.8602 18.4381C19.5539 19.3341 18.8937 19.8433 17.9731 19.9705C17.2522 20.0701 16.5843 19.8679 16.061 19.3471C14.1802 17.475 12.3122 15.59 10.4391 13.7101C10.3337 13.6044 10.2196 13.5069 10.121 13.3953C10.0241 13.2856 9.95525 13.2938 9.85419 13.3972C9.3463 13.917 8.8314 14.4298 8.31897 14.9451C6.8686 16.4035 5.42937 17.8733 3.96292 19.3153C3.28197 19.985 2.44111 20.1615 1.5353 19.8533C0.672013 19.5596 0.169064 18.9166 0.0326535 18.0291C-0.0822893 17.2812 0.119726 16.6048 0.674684 16.0521C2.54559 14.1885 4.41132 12.3198 6.27866 10.4527C6.37958 10.3518 6.47217 10.242 6.57766 10.1463C6.69257 10.0421 6.67744 9.96093 6.57312 9.85642C5.84434 9.12637 5.12143 8.39044 4.39331 7.65972C3.1385 6.40042 1.87385 5.15085 0.628197 3.88255C0.015633 3.25885 -0.121782 2.48396 0.0986432 1.66221C0.335403 0.779566 0.948128 0.242502 1.82922 0.0578124C2.62509 -0.109013 3.35422 0.0824322 3.94141 0.668262C5.9028 2.62511 7.85715 4.58902 9.81487 6.54955C9.8687 6.60347 9.91106 6.67286 10.0285 6.73449C10.287 6.4636 10.5455 6.19271 10.8136 5.912Z"
        fill="#FAFAFA"
      />
    </svg>