<svg width="130" height="130" viewBox="0 0 130 130" fill="none" xmlns="http://www.w3.org/2000/svg">
<path d="M119.322 44.1064C121.583 45.0477 123.635 45.8467 125.661 46.7066C130.334 48.6898 131.405 53.3376 128.028 57.1719C125.99 59.4865 123.823 61.6877 121.737 63.9613C119.148 66.7832 118.947 69.1362 121.191 72.26C122.925 74.674 124.9 76.9156 126.632 79.331C129.814 83.7671 128.235 88.3519 123.047 89.9208C120.202 90.7811 117.31 91.496 114.492 92.4337C110.565 93.7404 109.362 96.0431 110.101 100.021C110.643 102.936 111.079 105.879 111.377 108.828C111.759 112.606 108.908 115.557 105.047 115.705C101.311 115.849 97.9673 114.15 94.3838 113.567C89.8162 112.823 88.3241 113.566 86.5277 117.922C85.4366 120.569 84.4131 123.25 83.1745 125.827C80.9882 130.375 76.6938 131.331 72.858 128.075C70.5094 126.081 68.4046 123.803 66.1516 121.694C63.3095 119.034 61.0259 118.824 57.8816 121.058C55.3673 122.844 53.0367 124.893 50.49 126.629C46.0625 129.646 41.7438 128.171 40.0724 123.11C39.1072 120.187 38.4359 117.168 37.4664 114.247C36.2691 110.64 34.0406 109.42 30.3595 109.998C27.5312 110.442 24.6864 110.782 21.8484 111.163C16.7732 111.845 13.03 107.748 14.2286 102.801C14.9538 99.8079 15.7914 96.8402 16.4534 93.8336C17.2242 90.3326 16.2653 88.4083 12.9951 86.9321C10.2849 85.7087 7.48362 84.6883 4.75233 83.5096C-0.351421 81.3069 -1.49735 76.8318 2.06094 72.602C4.11493 70.1604 6.3978 67.9092 8.60517 65.5985C10.8857 63.2112 10.86 60.699 8.99529 58.1423C7.30743 55.828 5.51243 53.592 3.78567 51.3057C-0.00611123 46.2851 1.32853 41.8163 7.3286 39.7507C9.92793 38.8558 12.6185 38.2244 15.2698 37.481C18.8467 36.4781 20.1794 34.7286 19.8853 30.9983C19.6607 28.1495 19.1832 25.321 18.8412 22.4808C18.1179 16.4749 21.653 13.2679 27.5625 14.5766C30.2485 15.1715 32.9304 15.7875 35.6036 16.437C39.177 17.3052 41.2489 16.4278 42.8637 13.045C44.0947 10.4661 45.1118 7.78555 46.2307 5.15302C48.7029 -0.663418 53.4206 -1.65279 57.9613 2.67941C60.0343 4.6572 62.1233 6.61831 64.213 8.57856C66.6875 10.8998 69.325 10.945 72.0023 8.9989C74.4982 7.18473 76.8736 5.20247 79.3991 3.43231C83.8184 0.334745 88.3372 1.84254 90.0683 6.99513C90.9429 9.59839 91.6123 12.2717 92.3376 14.9235C93.4756 19.0842 95.1868 20.3963 99.4681 20.0121C102.535 19.7368 105.572 18.9897 108.638 18.8698C114.009 18.6599 116.714 22.1265 115.567 27.4214C115.147 29.3565 114.7 31.2899 114.158 33.1935C112.342 39.5728 113.162 41.4027 119.322 44.1064Z" fill="#242424"/>
<path fill-rule="evenodd" clip-rule="evenodd" d="M65.0356 22C41.238 22 22 41.7083 22 66.09C22 85.5797 34.3265 102.077 51.4265 107.916C53.5645 108.355 54.3476 106.968 54.3476 105.8C54.3476 104.778 54.2771 101.275 54.2771 97.6241C42.3057 100.253 39.8127 92.3683 39.8127 92.3683C37.8888 87.2585 35.0382 85.9452 35.0382 85.9452C31.12 83.2443 35.3236 83.2443 35.3236 83.2443C39.67 83.5363 41.9507 87.77 41.9507 87.77C45.7976 94.4852 51.9965 92.5878 54.4903 91.4196C54.8462 88.5727 55.987 86.6019 57.1982 85.5072C47.6501 84.485 37.6043 80.6894 37.6043 63.7537C37.6043 58.936 39.3132 54.9943 42.0211 51.9288C41.5939 50.8341 40.0972 46.3074 42.4493 40.2489C42.4493 40.2489 46.083 39.0808 54.2762 44.7747C57.7841 43.8096 61.4016 43.3186 65.0356 43.3145C68.6693 43.3145 72.3735 43.826 75.794 44.7747C83.9882 39.0808 87.6219 40.2489 87.6219 40.2489C89.9739 46.3074 88.4764 50.8341 88.0491 51.9288C90.8284 54.9943 92.4669 58.936 92.4669 63.7537C92.4669 80.6894 82.4211 84.4116 72.8016 85.5072C74.3696 86.8939 75.7227 89.5214 75.7227 93.6825C75.7227 99.595 75.6522 104.34 75.6522 105.799C75.6522 106.968 76.4362 108.355 78.5733 107.917C95.6734 102.076 108 85.5797 108 66.09C108.07 41.7083 88.7618 22 65.0356 22Z" fill="#DBDBDB"/>
</svg>
