
<svg width="307" height="325" viewBox="0 0 307 325" fill="none" xmlns="http://www.w3.org/2000/svg">
<g style="mix-blend-mode:difference">
<path d="M246.655 0C247.074 0.29488 247.269 0.665901 247.591 0.872275C249.674 2.20788 250.489 4.01111 251.065 6.30662C252.154 10.6432 252.085 14.943 251.426 19.2189C250.533 25.0108 250.429 30.8485 249.943 36.6554C249.599 40.7751 250.456 44.9792 250.792 49.1447C250.876 50.1869 251.637 50.4497 252.647 50.3994C256.926 50.186 260.483 51.7377 263.824 54.0221C265.007 54.8308 266.061 55.7132 267.039 56.6907C267.606 57.2569 268.292 57.218 268.989 57.1668C270.766 57.0364 272.325 57.2696 273.534 58.687C274.681 60.031 276.614 59.3974 278.143 59.8985C279.489 60.3395 280.525 60.9661 281.069 61.999C282.087 63.9309 283.938 65.0022 285.792 65.9375C290.212 68.1667 293.394 71.4367 295.538 75.4689C297.936 79.981 298.042 84.8488 297.226 89.7381C297.141 90.2504 296.808 90.7318 296.569 91.2189C296.155 92.0617 296.239 92.7887 296.764 93.6372C298.522 96.4808 299.52 99.6072 300.316 102.761C300.813 104.729 300.259 106.715 299.498 108.587C299.093 109.583 299.164 110.38 300.099 111.01C302.442 112.588 304.03 114.864 305.008 117.143C306.591 120.835 307.773 124.801 306.386 128.866C305.505 131.45 304.756 134.12 303.442 136.521C302.049 139.068 300.091 141.363 298.317 143.729C296.68 145.911 295.075 148.053 293.957 150.56C291.843 155.299 288.536 159.376 284.395 162.856C284.151 163.061 283.782 163.23 283.458 163.253C280.283 163.472 277.105 163.531 274.117 162.323C272.974 161.86 271.806 161.646 270.391 161.372C269.874 163.42 270.695 165.219 271.147 167.047C271.301 167.671 271.537 168.28 271.657 168.908C273.464 178.398 273.825 187.981 273.155 197.551C272.926 200.81 272.13 204.152 270.662 207.32C269.619 209.57 268.63 211.809 267.26 213.911C266.764 214.673 266.871 215.609 266.991 216.437C267.608 220.704 266.36 224.78 265.047 228.728C264.346 230.836 263.857 233.056 262.817 235.098C261.995 236.714 262.249 237.088 264.12 237.608C265.693 238.046 266.028 239.235 265.921 240.408C265.678 243.066 265.798 245.814 264.776 248.338C263.815 250.716 264.127 253.22 263.485 255.597C260.725 265.807 262.421 276.18 262.048 286.477C261.979 288.373 263.602 289.331 264.963 290.017C268.869 291.986 272.517 294.327 276.364 296.378C279.964 298.297 283.664 300.032 287.45 301.522C290.375 302.673 293.331 303.814 296.288 304.923C297.976 305.555 299.596 306.352 300.928 307.631C303.522 310.123 301.924 312.685 299.513 314.38C296.202 316.708 292.193 316.79 288.339 317.134C283.071 317.604 277.834 317.213 272.573 316.421C268.608 315.824 264.495 315.894 260.449 315.914C250.745 315.96 241.085 315.388 231.445 314.471C228.164 314.159 225.97 312.564 224.199 309.928C222.231 306.999 222.665 304.225 223.593 301.306C224.764 297.62 226.349 294.016 227.164 290.269C228.255 285.252 228.06 280.17 226.609 275.157C225.968 272.944 225.545 270.689 224.591 268.544C223.629 266.383 222.775 264.175 222.031 261.943C221.2 259.45 219.997 257.019 219.787 254.401C219.459 250.291 217.916 246.318 218.199 242.151C218.268 241.138 218.349 240.116 218.56 239.122C218.934 237.353 219.803 236.677 221.782 236.61C222.846 236.574 223.753 236.19 224.027 235.337C225.224 231.611 228.007 228.831 231.146 226.613C234.767 224.054 234.47 221.022 233.617 217.753C232.796 214.605 231.667 211.525 230.655 208.358C229.602 208.538 229.244 209.259 228.831 209.861C226.233 213.655 222.807 216.762 219.134 219.667C217.946 220.607 216.726 221.515 215.524 222.44C214.82 222.982 214.402 223.695 214.239 224.498C213.813 226.599 212.673 228.357 211.262 230.017C210.685 230.696 210.193 231.554 210.329 232.394C210.932 236.141 209.892 239.745 209.342 243.392C209.039 245.398 209.082 247.251 210.542 249.024C212.132 250.954 212.038 253.076 211.124 255.414C209.54 259.467 207.663 263.409 205.766 267.326C204.633 269.664 203.092 271.906 201.961 274.25C200.323 277.645 198.229 280.871 197.17 284.505C196.722 286.042 196.118 287.561 195.535 289.055C194.547 291.588 194.625 294.081 194.904 296.655C195.094 298.411 194.983 300.201 195.263 301.942C195.865 305.691 196.487 309.433 197.527 313.124C198.172 315.411 198.476 317.871 197.058 320.152C195.982 321.884 194.199 322.681 192.229 323.031C189.005 323.605 185.743 324.011 182.488 324.425C180.372 324.695 178.279 324.535 176.219 323.941C175.162 323.635 174.052 323.476 172.96 323.276C167.967 322.361 163.741 320.343 160.898 316.325C160.124 315.231 160.207 313.957 160.073 312.75C159.704 309.421 161.095 306.475 162.628 303.568C164.181 300.622 166.191 297.906 166.908 294.558C167.258 292.928 168.208 291.262 169.071 289.704C169.628 288.698 169.881 287.735 169.906 286.647C170.157 275.565 171.009 264.501 171.065 253.41C171.078 250.848 171.234 248.273 171.339 245.705C171.367 245.015 171.45 244.303 171.672 243.647C172.901 240.026 173.331 236.216 174.821 232.659C174.947 232.361 175.038 232.045 175.208 231.768C176.432 229.77 176.376 229.682 174.334 228.408C171.314 226.522 169.207 223.818 166.855 221.331C163.678 217.973 160.25 214.799 155.918 212.728C152.898 211.284 149.731 210.078 146.336 209.333C137.974 207.499 129.501 206.629 120.934 206.617C116.061 206.61 111.288 205.829 106.681 204.762C100.288 203.282 94.3261 200.701 89.1114 196.763C85.143 193.766 81.7246 190.365 78.9488 186.484C77.2881 184.162 76.1676 181.511 75.2875 178.79C73.3547 172.813 72.609 166.652 71.4355 160.55C70.8674 157.597 70.5047 154.568 69.2154 151.693C68.3962 149.867 68.2147 147.793 67.3984 145.885C66.3158 143.355 64.9261 141.008 63.2671 138.775C62.588 137.861 61.8695 136.971 61.1706 136.069C60.4032 135.079 59.5567 134.661 58.2029 135.335C54.7734 137.041 51.3732 138.786 48.0287 140.63C45.2399 142.168 42.3615 143.574 39.6888 145.282C37.0584 146.963 34.4626 148.689 31.8585 150.404C26.641 153.84 21.7858 157.692 16.7818 161.373C12.8106 164.294 9.22829 167.608 5.5082 170.782C4.58523 171.569 3.65648 172.422 2.3021 171.981C0.862934 171.513 0.029413 170.481 0.016708 169.031C0.00827498 168.07 -0.0558542 167.084 0.140084 166.149C0.74642 163.259 1.19881 160.335 1.86729 157.469C2.39012 155.228 2.99907 152.933 4.17399 150.819C4.98676 149.358 5.27697 147.682 5.83885 146.126C6.45378 144.422 7.47106 142.931 8.32216 141.411C9.58249 139.159 10.8111 136.868 12.2717 134.687C14.435 131.456 16.7654 128.343 19.3214 125.384C22.136 122.126 25.0295 118.922 28.2105 115.933C32.6677 111.745 37.4378 107.881 42.5261 104.372C45.7659 102.138 49.2518 100.19 52.6715 98.1715C55.7432 96.358 58.9406 94.7416 62.0079 92.9248C64.1888 91.6331 66.5709 90.6248 68.8579 89.4811C71.3967 88.2115 73.9137 86.9047 76.4693 85.6641C78.9171 84.4759 81.4694 83.4555 83.8519 82.1703C86.2136 80.8962 88.6863 79.8463 91.1644 78.811C94.4386 77.4432 97.6849 76.0217 101.031 74.7834C103.068 74.0298 105.145 73.3029 107.171 72.5084C108.948 71.8113 110.704 70.86 112.702 70.6341C114.259 70.458 115.436 69.4724 116.901 69.0411C120.787 67.8971 124.533 66.326 128.461 65.346C132.646 64.3019 136.536 62.5458 140.767 61.6086C144.716 60.7342 148.524 59.3352 152.396 58.1723C153.173 57.9388 153.943 57.6206 154.743 57.5253C158.937 57.0256 162.655 55.499 166.212 53.4671C168.768 52.0073 171.65 51.0954 174.687 51.179C178.153 51.2745 180.861 49.7772 183.536 48.1624C185.906 46.7316 188.217 46.7231 190.597 48.0026C191.802 48.6506 192.723 48.5937 193.894 47.6974C195.82 46.2243 197.952 44.9805 200.731 45.3071C201.945 45.4497 203.2 45.4085 204.427 45.3281C209.124 45.0204 209.524 43.852 209.953 40.6783C210.154 39.1908 210.293 37.7163 210.726 36.259C211.048 35.1793 211.086 34.0618 210.868 32.9187C209.179 24.0938 209.622 15.2092 210.108 6.33229C210.255 3.65011 211.925 1.69307 214.334 0.0973854C225.085 3.43507e-07 235.787 3.21601e-07 246.655 0ZM144.315 197.689C147.614 196.225 150.806 194.591 154.001 192.943C158.835 190.449 163.507 187.748 167.932 184.712C172.317 181.702 176.678 178.653 180.739 175.27C184.545 172.098 188.401 168.974 191.596 165.247C192.589 164.089 192.998 162.664 192.91 161.383C192.823 160.097 190.988 160.533 190.022 160.058C188.48 159.3 186.56 158.75 186.106 156.934C185.682 155.235 184.571 154.031 183.335 152.815C181.367 150.877 179.588 148.731 179.637 145.971C179.663 144.539 178.954 143.666 177.954 143.014C174.426 140.713 170.615 138.82 166.781 136.984C163.195 135.268 159.473 133.78 155.939 131.983C152.597 130.284 149.235 128.614 145.927 126.852C140.195 123.799 136.145 119.537 133.329 114.174C132.344 112.298 132.143 112.181 130.457 113.623C126.785 116.765 123.147 119.943 119.579 123.183C116.516 125.963 113.533 128.819 110.583 131.7C107.63 134.583 104.662 137.461 101.884 140.482C99.2625 143.331 96.8805 146.364 94.392 149.316C91.7703 152.425 89.4891 155.746 87.1765 159.045C85.8452 160.944 84.6908 162.935 83.5716 164.957C82.3431 167.177 81.0244 169.358 79.9423 171.647C79.5321 172.515 79.3287 173.411 79.7783 174.294C80.4737 175.659 80.7052 177.173 81.3323 178.529C83.6248 183.485 86.0953 188.359 90.693 192.013C93.2208 194.022 96.0304 195.611 99.0302 196.915C100.913 197.733 102.875 198.418 104.85 199.034C108.053 200.034 111.352 200.938 114.697 201.161C119.372 201.471 124.106 201.038 128.785 201.33C134.376 201.68 139.111 199.426 144.315 197.689ZM231.188 191.836C232.447 189.186 233.382 186.405 233.953 183.606C234.501 180.917 235.483 178.348 236.264 175.749C236.958 173.435 237.512 171.039 238.541 168.753C239.208 167.269 240.094 165.963 240.891 164.581C241.064 164.281 241.356 164.071 241.746 164.117C242.203 164.17 242.471 164.459 242.565 164.858C242.718 165.502 242.759 166.177 242.296 166.712C241.633 167.478 241.544 168.391 241.373 169.275C240.649 173.008 239.676 176.702 239.378 180.503C239.253 182.091 238.498 183.564 238.348 185.2C237.963 189.403 236.762 193.474 235.513 197.537C234.763 199.976 232.823 202.107 234.669 205.161C236.398 208.021 237.497 211.298 238.549 214.526C239.796 218.35 240.325 222.266 241.192 226.135C241.616 228.031 241.232 228.335 239.152 228.742C237.484 229.068 235.843 229.572 234.455 230.442C232.014 231.971 230.344 234.149 228.985 236.529C228.452 237.463 228.862 237.981 229.874 238.142C230.795 238.289 231.763 238.219 232.667 238.412C239.235 239.813 245.848 239.503 252.435 238.729C255.147 238.41 257.959 238.243 258.745 234.695C259.37 231.874 260.497 229.088 261.182 226.242C261.908 223.227 261.366 220.157 261.262 217.111C261.233 216.256 261.147 215.367 261.903 214.69C263.877 212.927 264.773 210.537 265.841 208.36C267.508 204.964 268.053 201.195 268.577 197.503C269.28 192.545 268.961 187.596 268.274 182.626C267.586 177.649 267.327 172.633 266.413 167.664C265.367 161.98 263.877 156.386 262.736 150.724C262.11 147.621 261.314 144.532 261.281 141.376C261.262 139.507 261.209 139.03 258.507 139.388C251.198 140.355 243.84 140.236 236.541 139.661C232.047 139.308 227.519 138.621 223.175 137.196C221.441 136.628 219.606 136.162 217.81 135.773C215.744 135.324 213.81 134.634 211.824 134.018C210.248 133.529 209.867 133.986 209.47 135.457C208.811 137.895 209.39 139.821 211.601 141.371C212.237 141.817 212.678 142.494 213.207 143.067C214.633 144.608 215.02 147.432 213.631 148.893C210.8 151.871 207.841 154.808 204.31 157.082C201.169 159.105 197.788 160.758 197.712 164.863C197.71 164.964 197.633 165.063 197.596 165.165C195.584 170.697 194.258 176.383 193.079 182.1C192.863 183.147 192.972 184.26 192.677 185.281C191.815 188.262 191.691 191.304 191.501 194.351C191.216 198.902 192.433 203.289 193.149 207.731C193.351 208.99 193.43 210.242 193.923 211.493C194.925 214.039 196.119 216.493 193.397 219.13C190.507 221.931 188.237 225.265 185.695 228.365C184.147 230.254 182.91 232.323 182.024 234.516C181.469 235.888 181.398 237.424 181.062 239.13C183.122 238.193 184.712 237.268 186.446 236.737C188.317 236.165 190.075 235.34 191.864 234.651C195.348 233.31 196.381 233.301 198.812 235.831C200.254 237.332 201.873 238.691 203.594 240.281C204.317 238.961 204.082 237.836 204.14 236.75C204.199 235.651 203.926 234.924 202.454 235.302C201.99 235.421 201.491 235.408 201.192 234.976C200.868 234.507 201.3 234.21 201.528 233.841C203.335 230.917 205.806 228.422 207.833 225.649C208.712 224.447 209.984 223.25 209.984 221.692C209.984 219.616 211.3 218.379 212.859 217.208C215.073 215.545 217.34 213.93 219.289 212.005C222.105 209.224 224.532 206.225 226.487 202.829C228.476 199.377 230.406 195.971 231.188 191.836ZM185.838 93.7449C187.244 91.7225 188.24 89.5042 189.035 87.2576C190.103 84.2393 190.705 81.0906 192.016 78.1273C192.991 75.9236 194.824 75.593 197.038 77.0008C200.839 79.4173 204.463 82.0658 208.677 83.9468C213.038 85.8939 217.45 85.4735 221.826 84.4564C225.284 83.6527 228.786 83.0566 232.255 82.3149C234.808 81.7689 237.496 81.7712 240.106 81.4163C246.414 80.5583 252.66 80.0616 258.941 81.8316C261.097 82.4395 263.328 82.9362 265.532 83.4357C268.062 84.0093 270.277 85.1475 272.629 86.0412C274.106 86.6025 275.605 87.1573 277.18 86.434C278.739 85.7185 278.789 84.3883 278.831 82.984C278.907 80.4176 278.184 77.9899 277.49 75.5596C276.704 72.8068 275.153 70.3835 273.225 68.171C270.954 65.5664 267.634 64.2671 264.686 62.4941C263.355 61.6939 261.846 61.2909 260.523 60.56C258.129 59.238 255.73 57.6657 252.83 58.3838C250.066 59.0682 247.323 59.6841 244.474 59.9159C244.258 59.9334 244.016 60.0585 243.855 60.1995C242.877 61.0577 241.632 61.1963 240.403 61.1306C237.138 60.956 233.915 61.4333 230.659 59.8597C228.725 58.9249 225.999 58.8314 223.669 58.4693C219.791 57.8665 215.686 57.9673 211.732 58.4832C208.511 58.9036 205.378 58.9615 202.126 58.7369C196.899 58.3758 191.917 57.2376 186.942 55.8857C185.14 55.3963 183.26 55.3619 181.356 55.5106C179.396 55.6635 177.603 56.3566 175.696 56.6751C172.322 57.2388 169.241 58.5663 166.499 60.4065C163.683 62.2964 161.619 64.7537 160.289 67.779C158.868 71.0104 159.305 71.6481 161.802 73.3181C163.94 74.7478 165.551 76.6295 167.01 78.6147C167.381 79.1197 167.349 79.7896 166.818 80.2503C166.21 80.7778 165.736 80.2695 165.301 79.9412C164.489 79.3275 163.729 78.6563 162.909 78.0509C161.398 76.9336 159.711 75.9106 157.801 75.7525C154.747 75.4997 151.49 77.4387 149.86 79.9249C148.359 82.2146 147.639 84.809 146.987 87.2652C145.829 91.6268 143.568 95.3 140.889 98.9443C139.754 100.489 138.4 102.142 138.641 104.344C139.324 110.611 142.108 115.898 147.253 120.09C149.595 121.998 152.367 123.378 154.969 124.967C157.912 126.765 160.939 128.428 163.971 130.075C164.964 130.614 165.813 131.378 166.94 131.735C169.443 132.528 171.564 133.991 173.796 135.219C176.665 136.796 179.429 138.55 182.141 140.37C183.451 141.249 184.152 142.29 184.087 143.538C183.92 146.731 185.497 149.021 187.978 151.038C189.392 152.187 190.997 153.098 191.95 154.789C192.948 156.56 197.006 157.286 198.744 156.2C202.802 153.664 206.638 150.887 209.351 147.044C209.972 146.166 209.917 145.349 209.079 144.584C208.336 143.907 207.638 143.19 206.908 142.501C203.586 139.366 199.857 137.064 194.854 136.671C192.559 136.492 190.123 136.062 188.683 133.888C187.701 132.404 186.492 131.036 185.294 129.682C183.052 127.149 181.168 124.365 179.775 121.43C178.052 117.8 176.179 114.227 174.317 110.669C172.188 106.603 169.178 102.992 165.274 100.091C164.49 99.5084 164.097 98.6788 164.384 97.599C166.841 98.0659 168.845 99.3165 170.903 100.312C173.643 101.637 176.229 101.53 178.768 100.341C181.799 98.9222 183.846 96.4865 185.838 93.7449ZM66.3975 97.0926C64.8544 97.8263 63.1893 98.4052 61.7907 99.3223C57.4345 102.179 52.7875 104.625 48.3759 107.412C42.9638 110.831 38.0957 114.771 33.3181 118.832C29.7697 121.848 26.5046 125.141 23.5414 128.641C20.9456 131.707 18.5694 134.927 16.4961 138.332C15.2335 140.405 13.8422 142.407 12.8463 144.611C12.0502 146.373 11.042 148.064 10.3722 149.862C9.43616 152.375 8.69767 154.951 7.93316 157.514C7.51931 158.902 6.72269 160.278 7.38191 161.816C7.60734 161.744 7.7449 161.738 7.81793 161.673C12.9405 157.059 18.2219 152.614 23.9019 148.564C28.5886 145.222 33.3999 142.041 38.302 138.974C41.2678 137.118 44.2656 135.301 47.3134 133.56C50.3706 131.813 53.5486 130.242 56.5954 128.481C58.5682 127.341 60.6203 126.352 62.6682 125.343C65.1684 124.111 67.5783 122.709 70.1471 121.615C72.8241 120.475 75.368 119.107 77.996 117.893C80.6116 116.684 83.2819 115.545 85.8928 114.324C88.5198 113.095 91.1082 111.772 93.7974 110.627C96.5165 109.47 99.2233 108.223 101.925 107.025C104.677 105.804 107.38 104.459 110.199 103.335C111.454 102.835 112.833 102.543 114.025 101.8C115.396 100.946 116.913 100.187 118.487 99.726C121.545 98.831 124.24 97.2335 127.238 96.23C129.398 95.507 131.374 94.382 133.595 93.7401C135.376 93.2254 136.974 92.2081 137.555 90.5541C139.083 86.2046 140.605 81.8489 142.807 77.7475C144.445 74.6974 147.12 72.5598 150.921 71.9935C152.571 71.7478 153.441 71.0897 153.69 69.59C153.951 68.0234 153.884 66.3582 155.146 65.0411C155.424 64.751 155.481 64.3421 155.127 64.0172C154.78 63.6976 154.373 63.8419 153.97 63.9277C151.351 64.4851 148.763 65.2158 146.232 65.9779C142.198 67.1924 138.153 68.4477 134.114 69.6143C130.122 70.767 126.213 72.148 122.225 73.3089C116.705 74.9157 111.368 77.0784 106.053 79.2102C104.71 79.7486 103.265 80.0102 101.995 80.6505C98.9861 82.1674 95.7468 83.2177 92.6605 84.5762C90.0425 85.7286 87.2624 86.6161 84.7733 87.959C82.3711 89.255 79.8132 90.2584 77.3758 91.4765C74.8923 92.7178 72.3529 93.9226 69.8535 95.1539C68.7592 95.693 67.3285 95.8269 66.3975 97.0926ZM197 81.5995C195.048 80.99 194.753 81.1207 194.775 83.0868C194.83 88.0774 193.469 92.695 190.641 96.9582C190.035 97.8727 190.21 98.6536 190.973 99.4345C193.271 101.788 195.777 103.935 198.328 106.063C202.087 109.2 206.188 110.979 211.384 109.99C211.933 109.885 212.578 109.927 213.111 110.088C213.825 110.303 214.209 110.937 213.659 111.474C212.886 112.229 212.42 113.18 211.226 113.692C208.162 115.008 207.758 115.731 208.11 118.018C208.461 120.295 208.799 122.575 209.23 124.84C209.458 126.045 210.201 126.931 211.441 127.562C212.711 128.208 214.106 128.661 215.296 129.374C217.99 130.989 220.963 132.036 223.912 133.094C226.278 133.942 228.793 134.489 231.236 135.15C235.247 136.237 239.298 136.542 243.367 136.503C248.876 136.45 254.38 135.99 259.889 135.749C261.254 135.69 261.937 135.146 262.04 133.916C262.209 131.889 262.557 129.866 262.566 127.84C262.587 123.415 263.392 119.108 264.923 114.946C266.425 110.867 268.678 107.044 270.131 102.938C271.211 99.8877 272.323 96.8436 272.108 93.5645C272.021 92.2369 270.702 90.5246 269.293 90.2444C267.017 89.7919 264.986 88.7662 262.69 88.2581C257.302 87.0654 251.952 86.2338 246.389 86.4336C242.337 86.5792 238.312 86.9778 234.281 87.2908C229.961 87.6262 225.772 88.7084 221.557 89.6156C218.219 90.3338 214.903 90.4675 211.54 89.3398C208.791 88.4185 206.195 87.2917 203.615 86.0489C201.218 84.8941 199.214 83.3309 197 81.5995ZM292.886 96.4318C291.713 95.1211 290.811 93.6 291.066 91.9407C291.264 90.65 291.622 89.3191 292.035 88.0567C293.903 82.3568 292.669 77.3909 288.623 72.7188C286.237 69.9639 283.229 68.4826 279.738 67.5105C278.803 67.2501 277.823 67.0836 276.9 67.4221C276.717 67.9299 276.918 68.2543 277.174 68.5557C279.784 71.6349 281.989 74.8765 283.461 78.599C284.816 82.0285 284.902 85.4342 284.214 88.8697C283.807 90.9035 282.555 92.651 280.021 93.1432C278.452 93.4479 277.928 94.3874 278.114 95.7508C278.339 97.4079 278.383 99.0707 278.072 100.715C277.402 104.263 275.475 107.399 273.979 110.668C272.54 113.815 272.822 114.602 275.427 115.524C277.089 116.112 278.585 117.174 280.504 117.191C281.143 117.196 281.75 117.593 281.808 118.301C281.872 119.07 281.236 119.266 280.587 119.435C279.795 119.641 278.817 119.787 278.627 120.616C278.046 123.139 277.709 125.768 278.798 128.178C279.743 130.268 281.419 132.074 282.508 134.122C283.999 136.926 284.214 138.942 279.863 139.718C278.574 139.948 277.292 139.98 276.008 139.923C273.338 139.804 271.087 140.56 269.136 142.246C268.241 143.019 267.054 143.583 267.06 144.872C267.075 148.298 267.098 151.733 268.76 154.931C269.151 155.685 269.772 156.184 270.628 156.538C272.158 157.173 273.727 157.747 275.225 158.418C278.332 159.811 281.6 159.655 284.016 157.564C287.797 154.289 289.882 150.026 291.68 145.711C292.26 144.319 292.899 142.982 293.94 142.019C296.629 139.531 298.237 136.434 299.717 133.386C301.726 129.247 302.336 124.778 301.408 120.205C300.679 116.614 295.988 113.704 292.098 115.9C290.886 116.585 289.455 116.946 287.969 117.514C287.452 116.264 287.792 115.28 288.714 114.548C289.631 113.822 290.687 113.227 291.736 112.659C294.122 111.366 295.475 109.622 295.418 106.959C295.342 103.362 295.304 99.7934 292.886 96.4318ZM232.58 299.051C235.105 299.473 237.479 300.48 240.124 300.498C241.336 300.507 241.951 301.327 241.738 302.529C241.202 305.549 240.949 310.363 245.394 310.592C251.52 310.907 257.633 310.866 263.775 311.682C269.772 312.478 275.825 313.26 281.905 313.626C284.924 313.808 286.738 311.511 285.724 308.91C285.214 307.6 284.169 306.709 283.143 305.957C279.746 303.466 275.7 301.882 272.061 299.714C269.973 298.47 267.76 297.436 265.58 296.339C263.294 295.188 261.212 293.681 258.876 292.639C257.155 291.872 256.6 290.819 256.604 289.229C256.619 283.713 256.592 278.197 256.585 272.681C256.581 269.843 256.606 267.004 256.579 264.166C256.564 262.693 256.125 262.429 254.635 263.015C253.858 263.32 253.077 263.434 252.25 263.49C244.929 263.984 237.607 264.255 230.268 263.824C228.586 263.725 228.295 264.179 228.941 265.612C230.318 268.665 231.494 271.77 231.898 275.08C232.041 276.248 232.253 277.413 232.516 278.563C233.988 285.007 233.565 291.72 231.103 297.818C230.784 298.61 231.488 298.952 232.58 299.051ZM215.805 8.8848C215.233 13.851 215.336 18.8276 215.684 23.795C215.818 25.7058 215.51 27.6802 216.278 29.5258C217.335 32.0704 217.333 34.8225 218.54 37.3921C219.895 40.275 221.89 42.4065 225.242 42.5813C228.926 42.7734 232.639 42.9667 236.31 42.3992C238.998 41.9837 240.878 40.3677 241.949 38.265C243.576 35.0678 243.977 31.5206 244.698 28.0807C245.453 24.4841 245.222 20.8262 245.434 17.195C245.599 14.3603 245.704 11.5575 245.33 8.71362C244.976 6.02576 241.898 4.26919 239.899 3.90375C233.863 2.79978 227.776 2.91979 221.71 3.68761C219.062 4.02277 216.205 5.67978 215.805 8.8848ZM173.791 293.437C173.703 293.576 173.626 293.722 173.526 293.854C172.845 294.757 172.207 295.763 172.57 296.838C172.944 297.95 174.215 297.252 175.05 297.496C175.586 297.652 176.06 297.831 176.117 298.409C176.176 299.016 175.831 299.403 175.259 299.685C171.749 301.411 168.754 303.749 166.566 306.746C165.261 308.535 164.516 310.65 165.482 312.973C166.652 315.791 169.236 317.109 172.017 317.829C174.861 318.565 177.826 319.112 180.837 319.208C184.241 319.316 187.623 319.495 190.843 318.064C192.552 317.305 193.346 316.09 192.827 314.534C191.176 309.59 189.546 304.64 188.237 299.608C187.994 298.673 188.167 297.96 189.331 297.832C190.831 297.667 190.806 296.784 190.479 295.845C190.091 294.728 189.502 293.669 189.108 292.553C188.805 291.693 188.32 291.158 187.29 291.075C185.133 290.903 182.982 290.637 180.821 290.535C179.137 290.455 177.301 289.71 175.848 291.166C175.18 291.835 174.557 292.542 173.791 293.437ZM178.753 107.19C178.969 107.744 179.127 108.323 179.41 108.846C180.961 111.71 182.025 114.763 183.235 117.737C183.989 119.587 184.927 121.358 185.774 123.15C187.253 126.28 189.795 128.85 191.859 131.674C192.426 132.45 193.26 133.137 194.462 133.113C196.019 133.082 197.447 133.406 198.851 134.082C200.346 134.802 201.31 134.289 201.61 132.757C201.795 131.813 201.868 130.849 201.955 129.891C202.243 126.726 200.679 123.825 200.364 120.746C200.15 118.649 199.098 117.123 197.112 115.942C195.464 114.962 193.744 114.013 192.258 112.852C189.422 110.635 186.419 108.546 184.068 105.868C182.54 104.127 179.942 104.909 178.753 107.19ZM176.736 269.34C176.059 274.221 175.632 279.12 175.386 284.033C175.352 284.718 175.118 285.601 176.117 285.779C178.69 286.238 181.013 287.594 183.763 287.432C185.398 287.336 187.05 287.387 188.687 287.474C190.028 287.546 190.676 287.102 191.035 285.879C192.045 282.434 193.265 279.056 194.884 275.787C195.81 273.916 197.163 272.177 197.467 270.078C196.995 269.474 196.305 269.576 195.681 269.597C192.548 269.704 189.455 269.454 186.482 268.535C184.357 267.878 182.031 268.304 179.965 267.357C177.275 266.123 176.84 266.378 176.736 269.34ZM217.464 42.3728C216.145 41.6627 215.71 40.1509 214.283 39.412C214.123 39.6071 213.893 39.7586 213.877 39.9268C213.554 43.3614 213.193 46.8251 216.629 49.3295C217.522 49.9805 217.789 51.199 219.175 51.4165C221.468 51.7762 223.573 52.7391 225.837 53.2706C227.669 53.7007 229.433 54.3799 231.369 54.4798C231.847 54.5044 232.289 54.717 232.581 55.074C233.14 55.7583 233.916 55.8712 234.77 55.8717C236.298 55.8727 237.825 55.9085 239.352 55.9107C239.877 55.9114 240.494 55.9604 240.841 55.5572C241.552 54.7338 242.549 54.5264 243.56 54.2177C245.781 53.5401 246.483 52.6189 246.408 50.458C246.323 47.9978 246.148 45.5384 245.928 43.085C245.876 42.5064 245.973 41.7568 245.148 41.4074C244.414 41.52 243.853 41.9488 243.355 42.3701C240.238 45.0101 236.626 46.3367 232.335 46.0141C229.411 45.7943 226.487 45.5224 223.558 45.4481C220.986 45.3828 219.183 44.2394 217.464 42.3728ZM243.248 248.998C243.48 248.961 243.709 248.915 243.942 248.891C248.768 248.392 253.645 248.219 258.349 246.941C259.018 246.759 259.642 246.601 259.716 245.907C259.832 244.812 260.299 243.846 260.819 242.882C261.327 241.944 260.86 241.569 259.849 241.621C259.268 241.651 258.687 241.761 258.117 241.876C254.634 242.58 251.192 243.353 247.554 243.278C243.161 243.189 238.76 243.498 234.365 243.455C231.745 243.429 229.031 243.558 226.543 242.652C222.168 241.059 222.349 242.155 222.645 245.654C222.68 246.073 222.865 246.484 223.003 246.893C223.267 247.677 223.799 248.114 224.742 248.257C230.772 249.174 236.82 249.675 243.248 248.998ZM200.223 245.901C198.656 244.33 197.055 242.787 195.534 241.18C194.595 240.189 193.636 240.222 192.4 240.683C187.977 242.332 183.996 244.837 179.434 246.22C178.455 246.517 177.99 247.315 177.954 248.23C177.929 248.874 178.318 249.33 179.07 249.476C181.861 250.017 184.51 250.988 187.313 251.567C192.608 252.66 197.955 253.035 203.32 253.428C203.969 253.475 204.774 253.796 205.203 253.004C205.613 252.245 205.124 251.684 204.648 251.12C203.228 249.437 201.82 247.746 200.223 245.901ZM201.29 48.2255C199.956 48.3214 198.898 49.0828 197.752 49.5691C196.601 50.0576 196.001 51.0333 197.116 52.173C197.518 52.5834 197.775 53.058 197.798 53.6182C197.814 54.0055 197.765 54.3811 197.335 54.5842C196.934 54.7734 196.49 54.7663 196.188 54.4751C194.962 53.2953 193.293 52.702 191.916 51.737C189.841 50.2834 187.576 50.8414 185.348 51.1108C184.789 51.1785 184.325 51.6364 184.478 52.2959C184.803 52.7372 185.307 52.6816 185.761 52.6924C187.757 52.7401 189.562 53.1115 191.462 53.9063C193.074 54.5804 194.853 55.4276 196.682 55.5522C201.478 55.879 206.292 55.9813 211.105 55.8238C211.685 55.8049 212.341 55.793 212.823 55.5492C214.632 54.6338 216.429 54.9743 218.294 55.3293C220.313 55.7137 222.363 56.0399 224.469 55.6418C222.598 55.2254 220.852 54.3455 219.096 53.9962C215.719 53.3249 212.918 51.6556 209.914 50.3847C207.218 49.2444 204.405 48.7996 201.29 48.2255ZM227.475 254.652C226.499 254.492 225.353 254.109 225.119 255.483C224.918 256.664 225.419 257.591 226.819 257.911C227.388 258.04 227.957 258.186 228.536 258.262C231.913 258.705 235.338 258.737 238.716 258.663C244.376 258.539 250.079 258.64 255.645 257.25C257.14 256.877 258.038 256.495 258.195 254.968C258.364 253.34 258.104 253.082 256.295 253.53C254.827 253.893 253.391 254.357 251.86 254.514C243.84 255.334 235.813 255.081 227.475 254.652ZM271.79 136.316C273.667 136.326 275.543 136.339 277.419 136.342C277.959 136.344 278.509 136.303 278.72 135.738C278.903 135.248 278.517 134.959 278.198 134.636C276.327 132.745 274.741 130.694 273.515 128.381C272.412 126.297 272.221 124.305 273.499 122.277C273.983 121.509 273.908 121.007 272.95 120.637C272.481 120.456 272.1 120.091 271.67 119.821C270.733 119.23 270.1 119.342 269.669 120.402C269.094 121.814 268.727 123.243 268.574 124.746C268.188 128.564 266.877 132.275 267.009 136.159C267.053 137.439 267.444 137.771 268.675 137.179C269.57 136.75 270.434 136.331 271.79 136.316ZM194.3 259.465C189.59 258.383 184.693 258.038 180.104 256.451C179.302 256.173 178.291 255.637 177.49 256.489C176.419 257.626 177.283 259.873 178.876 260.277C181.731 261.001 184.541 261.845 187.458 262.398C191.699 263.202 195.997 262.921 200.257 263.262C200.314 263.266 200.374 263.255 200.432 263.249C202.069 263.078 202.313 261.839 202.425 260.765C202.549 259.573 201.29 259.936 200.591 259.872C198.606 259.692 196.609 259.624 194.3 259.465ZM243.725 56.7203C243.412 56.8264 243.003 56.8368 243.044 57.4779C244.849 57.6072 246.595 57.3782 248.247 56.684C251.166 55.4577 254.214 55.8777 257.241 56.0342C257.716 56.0587 258.01 56.5642 258.399 56.7019C260.404 57.4118 262.074 58.9204 264.93 58.9596C262.875 56.6059 260.942 54.7353 258.174 53.832C257.151 53.4979 255.986 53.4978 254.976 53.0275C254.316 52.7203 253.552 52.5814 252.933 52.886C251.241 53.7177 249.282 53.8359 247.617 54.9031C246.551 55.5866 245.466 56.5905 243.725 56.7203ZM274.521 62.7927C273.52 62.8454 272.794 62.5051 272.069 61.8119C270.113 59.9399 269.243 59.7758 267.661 60.654C270.395 64.0232 276.569 65.4695 278.33 63.1166C277.249 62.1913 275.997 62.8115 274.521 62.7927ZM239.045 58.7645C239.462 58.7077 239.946 58.9048 240.533 58.3378C238.461 58.2759 236.656 58.1781 234.88 58.7628C236.168 58.7628 237.456 58.7628 239.045 58.7645Z" fill="#B6FF5C"/>
</g>
</svg>
