<svg width="544" height="362" viewBox="0 0 544 362" fill="none" xmlns="http://www.w3.org/2000/svg">
<path d="M11.5197 286.052C26.0924 277.27 40.421 268.789 54.5373 259.969C58.3764 257.57 60.1596 258.209 62.2248 262.04C67.4501 271.732 73.2542 280.926 82.7627 287.331C91.2953 293.078 100.801 293.769 110.414 293.63C117.529 293.528 124.639 292.18 130.546 287.602C139.843 280.397 143.187 270.155 143.277 259.116C143.606 219.121 143.447 179.122 143.47 139.125C143.493 97.1272 143.508 55.1294 143.541 13.1317C143.547 5.31478 144.077 4.86458 151.658 4.78954C171.65 4.59166 191.641 4.3004 211.634 4.12435C219.296 4.05687 220.598 5.45287 220.597 13.1796C220.59 93.6748 220.719 174.171 220.467 254.665C220.405 274.625 216.818 294.357 206.769 311.705C196.053 330.202 180.677 344.438 160.032 351.929C137.297 360.178 114.095 362.84 89.8977 359.815C67.7947 357.051 48.1741 349.35 30.6224 335.858C17.2203 325.556 8.23621 311.887 0.630622 297.119C-0.59739 294.735 -0.0113003 292.967 2.20875 291.628C5.20185 289.823 8.19981 288.025 11.5197 286.052Z" fill="#FFCD42"/>
<path d="M339.281 27.8453C349.992 17.6834 362.593 11.7653 375.922 6.58693C396.902 -1.56413 418.735 -0.620859 440.004 1.38894C473.399 4.54445 499.385 21.6544 517.748 50.1818C524.941 61.3569 523.09 60.0907 513.245 66.352C498.781 75.5514 484.141 84.4748 469.587 93.5326C465.037 96.3644 463.799 95.8785 460.805 90.9602C454.261 80.2107 446.141 70.8175 433.581 67.3748C419.33 63.4686 397.609 64.2568 388.739 79.6543C380.745 93.5314 383.322 109.673 395.509 119.593C404.103 126.588 414.229 130.991 424.258 135.436C437.91 141.485 451.728 147.159 465.369 153.232C482.163 160.71 497.846 170.054 511.682 182.261C523.705 192.869 531.526 206.262 536.975 221.176C544.878 242.808 544.883 264.98 539.422 286.862C533.413 310.935 519.241 329.691 497.552 342.245C481.084 351.777 463.17 356.532 444.346 359.267C425.093 362.064 405.999 361.389 387.209 357.988C372.638 355.35 358.412 350.731 344.839 343.931C323.352 333.166 306.631 317.729 293.786 297.683C286.194 285.836 286.294 285.872 298.689 278.937C313.499 270.65 328.105 261.997 342.746 253.41C347.322 250.726 348.985 251.131 351.995 255.589C361.024 268.963 371.055 281.329 386.672 287.535C392.202 289.732 397.825 291.457 403.817 292.373C413.615 293.869 423.375 294.451 433.08 292.722C445.444 290.519 457.469 286.612 463.509 274.463C469.978 261.453 467.843 243.236 454.368 233.201C444.251 225.666 432.801 220.778 421.446 215.686C400.259 206.186 378.453 198.005 358.653 185.598C339.702 173.722 324.286 158.381 316.336 137.32C309.612 119.503 307.196 100.879 310.825 81.5632C313.352 68.1179 317.366 55.5687 324.843 44.1583C328.792 38.132 333.859 33.0599 339.281 27.8453Z" fill="#FFCD42"/>
</svg>
