<svg version="1.1" id="Layer_1" xmlns="http://www.w3.org/2000/svg" xmlns:xlink="http://www.w3.org/1999/xlink" x="0px" y="0px"
	 width="100%" viewBox="0 0 752 560" enable-background="new 0 0 752 560" xml:space="preserve">
<path fill="#ff98a2" opacity="1.000000" stroke="none" 
	d="
M272.295837,399.281128 
	C282.762970,389.467133 292.928467,379.846741 303.227875,370.371857 
	C305.753693,368.048187 306.846802,365.555603 306.840851,362.088257 
	C306.763641,317.099213 306.806244,272.109955 306.811920,227.120743 
	C306.812103,225.621613 306.782928,224.120132 306.697510,222.623734 
	C306.082001,211.841049 295.091431,205.841110 285.600861,211.012100 
	C284.088531,211.836090 283.081909,213.697830 280.957611,213.502899 
	C280.573547,211.737305 282.000549,211.104874 282.882050,210.289566 
	C295.968231,198.186081 309.180084,186.216614 322.145416,173.985641 
	C325.203033,171.101181 327.648743,170.965057 330.804718,173.391190 
	C334.814423,176.473633 338.251678,180.023941 340.899750,184.348694 
	C341.817200,185.847061 342.554108,188.140198 344.845367,187.408035 
	C347.414642,186.587036 346.545685,184.118439 346.416168,182.226990 
	C346.059448,177.017548 345.466644,171.808807 347.080231,166.144318 
	C348.868439,168.293533 348.310150,170.178665 348.314026,171.896469 
	C348.341095,183.893173 348.245453,195.890121 348.270508,207.886841 
	C348.275482,210.281158 347.527466,213.211105 350.621277,214.378845 
	C353.370178,215.416412 354.833740,213.091187 356.500671,211.534088 
	C369.527771,199.365433 382.607910,187.252502 395.528442,174.971634 
	C398.750427,171.909164 402.105835,170.465988 406.640930,170.602066 
	C416.629578,170.901794 426.633514,170.661545 436.630951,170.704254 
	C447.500732,170.750687 456.823730,174.357483 464.018524,182.784500 
	C464.946350,183.871201 465.731995,185.572205 467.592346,184.709656 
	C469.079285,184.020218 468.720551,182.422913 468.731232,181.139206 
	C468.773560,176.057129 468.748627,170.974472 468.748627,165.568420 
	C471.992157,166.548508 471.173096,168.539322 471.176147,169.969604 
	C471.206146,183.965454 471.123871,197.961502 471.106018,211.957535 
	C471.103180,214.194321 470.784821,216.200577 469.021851,217.854248 
	C455.535828,230.504074 442.090057,243.196823 428.607849,255.850754 
	C428.186523,256.246216 427.505859,256.365387 426.702667,256.721191 
	C432.279816,244.709778 428.941345,232.356873 429.476898,220.317383 
	C429.643829,216.564331 427.212311,213.446686 424.062286,211.181396 
	C419.615112,207.983276 416.858826,208.075851 412.691223,211.739914 
	C411.070587,213.164749 409.800018,215.084656 408.010498,216.204575 
	C397.334839,222.885452 395.715912,232.670883 396.089203,244.492004 
	C396.888275,269.794067 396.163177,295.140778 396.453888,320.464722 
	C396.529816,327.076508 394.288696,331.903473 389.532410,336.220581 
	C379.789215,345.064148 370.254730,354.138885 360.698151,363.185883 
	C358.973938,364.818146 356.216156,366.337769 357.663025,369.338409 
	C358.967804,372.044342 361.872955,371.329163 364.307465,371.701569 
	C378.035614,373.801575 387.982300,368.739044 398.068634,358.882477 
	C432.256775,325.473206 467.607849,293.253845 502.538300,260.605164 
	C503.560760,259.649536 504.378357,258.160614 506.178345,258.438049 
	C506.270172,258.770050 506.503876,259.254822 506.410583,259.329132 
	C499.859680,264.548096 499.796051,271.738129 499.924927,279.229309 
	C500.159912,292.888580 499.865173,306.556335 500.029358,320.217682 
	C500.110138,326.941620 498.084167,332.290344 493.009308,337.023285 
	C468.156769,360.201477 443.499725,383.589966 418.878571,407.014496 
	C416.149628,409.610840 413.180206,410.000763 409.757965,409.999786 
	C367.101562,409.987579 324.444946,409.959198 281.789001,410.116272 
	C273.681946,410.146118 265.062103,408.025146 258.099121,414.989899 
	C257.823242,414.520721 257.547394,414.051575 257.271515,413.582397 
	C262.195496,408.897705 267.119476,404.213043 272.295837,399.281128 
M414.500183,371.004700 
	C426.331848,371.000854 438.164185,371.069977 449.994873,370.961365 
	C455.625458,370.909698 458.668518,367.838379 458.690002,362.311127 
	C458.751526,346.480255 458.715210,330.649017 458.706726,314.817902 
	C458.705627,312.809692 458.825378,310.689026 456.530273,309.680511 
	C454.260773,308.683258 452.751556,310.091949 451.262848,311.492035 
	C432.453278,329.182190 413.641510,346.869965 394.829468,364.557465 
	C393.493256,365.813812 391.808350,367.035553 392.708832,369.165955 
	C393.596832,371.266815 395.709381,370.966461 397.502747,370.983124 
	C402.834900,371.032684 408.167755,371.003571 414.500183,371.004700 
M348.334961,260.758362 
	C350.216675,265.615173 351.963898,265.976624 356.160187,262.055847 
	C372.680664,246.620071 389.154297,231.134171 405.626831,215.647156 
	C407.052002,214.307236 408.932739,212.959427 407.886841,210.624252 
	C406.929504,208.486786 404.804810,208.345169 402.754486,208.344650 
	C394.773346,208.342651 386.717316,209.037292 378.828888,208.182816 
	C367.469666,206.952423 358.478638,210.107834 351.229889,218.997131 
	C349.433380,221.200287 348.219086,223.101807 348.245026,225.980042 
	C348.346893,237.285751 348.295166,248.592865 348.334961,260.758362 
M318.951294,358.474243 
	C316.629456,360.619873 314.283203,362.739929 311.996155,364.922028 
	C310.880951,365.986053 309.999847,367.238068 310.606934,368.905670 
	C311.226624,370.607758 312.741119,370.918518 314.275177,370.920959 
	C325.260254,370.938324 336.255219,371.175415 347.225647,370.767181 
	C351.489471,370.608521 355.113220,367.392303 355.347656,363.219666 
	C355.906830,353.265717 355.720184,343.252258 355.411072,333.275970 
	C355.290710,329.391510 352.386902,328.321869 349.059052,330.449158 
	C347.808746,331.248352 346.686310,332.275604 345.600189,333.299255 
	C336.880066,341.517670 328.182587,349.760132 318.951294,358.474243 
M355.635803,301.499359 
	C355.635803,289.776276 355.635803,278.053162 355.635803,265.963409 
	C349.969269,268.997650 347.971252,272.888245 348.145508,278.802094 
	C348.566223,293.078949 348.258453,307.376617 348.317078,321.665649 
	C348.323914,323.333557 347.732788,325.210205 349.030121,326.730591 
	C354.038330,324.176514 356.297211,320.526489 355.723541,314.951843 
	C355.300537,310.841339 355.637268,306.652649 355.635803,301.499359 
z"/>
</svg>