<svg
  width="68"
  height="73"
  viewBox="0 0 68 73"
  fill="none"
  xmlns="http://www.w3.org/2000/svg"
>
  <path
    d="M48.5586 27.1719C50.2966 25.7071 51.9422 24.2488 53.2823 22.4328C56.9128 17.513 57.006 11.8828 53.5615 6.80362C51.9492 4.42606 49.9185 2.55417 47.6634 0.93214C47.4068 0.747576 47.0307 0.685698 46.968 0.242587C47.2078 -0.114585 47.5645 0.0283173 47.8666 0.0278383C52.3011 0.0207889 56.7357 0.0473358 61.1699 0.0113834C62.0198 0.00450245 62.5584 0.315288 63.0569 1.04523C68.9211 9.63167 68.7922 20.4427 62.7662 29.1181C59.9316 33.1991 56.3287 36.346 52.5352 39.2905C48.5655 42.3718 44.3176 45.0116 40.3843 48.149C37.7866 50.221 35.3605 52.4859 33.6716 55.5209C33.4342 55.9475 33.1719 56.2635 32.6447 56.0603C29.8751 54.9925 27.6549 53.2372 26.4364 50.2599C25.7188 48.5065 25.9013 46.8159 26.8731 45.2188C28.5395 42.4803 30.8468 40.4371 33.2194 38.4694C36.3452 35.8769 39.7135 33.6667 42.9899 31.3114C44.8463 29.9769 46.6667 28.5846 48.5586 27.1719Z"
    fill="#f0f0f0"
  />
  <path
    d="M1.81004 48.1194C3.92192 43.0964 7.25532 39.2511 11.0961 35.8453C15.3123 32.1067 19.9353 28.9971 24.4768 25.7593C28.0222 23.2317 31.4194 20.5202 33.718 16.5426C33.981 16.0875 34.3124 15.8792 34.7845 16.0715C37.8077 17.303 40.1857 19.241 41.1166 22.7715C41.4897 24.1868 41.3116 25.4863 40.5433 26.7072C38.8426 29.4094 36.5587 31.4722 34.1976 33.4528C30.4114 36.6291 26.2512 39.2124 22.3094 42.1415C19.3908 44.3102 16.4903 46.5046 14.2122 49.4966C10.4542 54.432 10.3604 60.3494 13.9601 65.4414C15.5703 67.7191 17.5634 69.5375 19.7461 71.1374C19.9622 71.2958 20.1762 71.4598 20.3754 71.6413C20.4355 71.6959 20.4421 71.8185 20.4754 71.9162C20.1896 72.2294 19.8444 72.1119 19.5361 72.1125C15.0714 72.1223 10.6065 72.1031 6.14206 72.14C5.33065 72.1468 4.81477 71.8467 4.3368 71.1531C1.33399 66.7956 -0.127138 61.9101 0.00866581 56.5009C0.0810003 53.6196 0.7296 50.8495 1.81004 48.1194Z"
    fill="#f0f0f0"
  />
  <path
    d="M39.4945 3.49517C45.2972 8.04072 46.3487 16.2495 43.7554 21.3717C43.4977 21.3743 43.4486 21.1601 43.3801 20.9602C41.8129 16.3879 38.505 14.104 34.2975 13.1125C30.8434 12.2985 27.3207 12.4322 23.8104 12.4974C21.8089 12.5346 19.8071 12.5785 17.8055 12.5709C12.95 12.5527 8.09437 12.5242 3.2393 12.456C2.24131 12.442 1.22367 12.8364 0.0350342 12.2922C1.69844 10.1098 3.64455 8.35049 5.44261 6.23003C3.62823 4.26073 1.84342 2.32353 0.0664498 0.394834C0.433398 -0.125321 0.824189 0.0294206 1.15769 0.0291165C9.95578 0.0210767 18.754 -0.00321727 27.5519 0.0374022C31.776 0.0569061 35.8589 0.767885 39.4945 3.49517Z"
    fill="#f0f0f0"
  />
  <path
    d="M29.2166 68.9642C21.9884 64.6988 20.6529 55.5756 23.4536 50.1234C23.7417 50.1773 23.7654 50.4504 23.8439 50.6747C25.1302 54.3516 27.6754 56.5725 31.0275 57.8482C33.6648 58.852 36.4241 59.0498 39.1775 59.0643C47.945 59.1106 56.7129 59.0732 65.4807 59.0721C65.925 59.0721 66.384 59.0059 66.8077 59.2162C66.8213 59.7792 66.4444 60.0087 66.1874 60.3C64.9214 61.7347 63.6557 63.1705 62.3556 64.569C61.8997 65.0594 61.9154 65.4076 62.358 65.884C63.7044 67.3331 65.0242 68.8111 66.3493 70.2831C66.6137 70.5769 66.9395 70.8367 67 71.2855C66.6611 71.6283 66.2825 71.4911 65.9424 71.4914C57.0105 71.498 48.0782 71.5437 39.1468 71.468C35.7155 71.4389 32.3489 70.8421 29.2166 68.9642Z"
    fill="#f0f0f0"
  />
</svg>
