<svg width="600" height="600" viewBox="0 0 600 600" fill="none" xmlns="http://www.w3.org/2000/svg">
<path d="M476.259 552.051C415.382 590.199 350.302 605.127 279.393 598.464C157.844 587.042 48.9432 498.836 14.341 381.436C-13.2557 287.805 -1.27616 199.53 52.4685 117.898C86.5155 66.1843 132.9 28.5947 189.717 3.95186C203.673 -2.10125 217.021 -1.72649 228.247 8.76676C239.525 19.3085 240.641 32.6223 235.372 46.9537C210.398 114.885 213.027 181.87 245.73 246.394C282.586 319.114 342.931 362.416 422.262 377.68C467.11 386.309 511.493 380.088 554.57 364.306C576.373 356.318 594.637 367.159 599.447 389.042C600.911 395.701 599.271 401.933 596.827 407.482C582.626 439.736 565.374 470.065 541.431 496.397C522.19 517.557 500.495 535.573 476.259 552.051ZM477.582 469.105C484.644 461.566 492.86 454.949 498.464 443.693C398.645 453.183 313.85 422.519 244.518 353.276C175.11 283.957 148.5 197.779 156.168 98.1663C146.611 106.878 138.658 112.88 132.207 120.209C87.4782 171.022 62.6973 229.35 65.4976 298.235C68.9381 382.868 106.345 448.897 175.886 495.547C237.219 536.691 304.925 544.445 376.055 526.086C414.403 516.188 446.589 495.483 477.582 469.105Z" fill="oklch(20% 0.005 30)"/>
</svg>
