<svg width="131" height="123" viewBox="0 0 131 123" fill="none" xmlns="http://www.w3.org/2000/svg">
<path d="M11.5341 48.3344C8.52536 47.2591 5.7047 46.588 3.26561 45.2311C1.79351 44.4121 -0.235212 43.126 0.0223941 41.0872C0.25664 39.2333 2.08798 38.3094 3.54605 37.85C22.4224 31.9029 41.3546 26.1332 60.2714 20.3145C81.2634 13.8574 102.236 7.33478 123.274 1.03065C125.387 0.397269 128.548 -0.990797 130.219 1.14603C131.783 3.14637 130.171 5.73913 129.238 7.57403C110.396 44.6504 91.4434 81.6704 72.3863 118.637C71.5484 120.262 70.3126 122.749 68.0301 122.563C65.5872 122.363 64.8569 119.255 64.5049 117.37C61.45 101.016 58.6087 84.6199 55.9002 68.204C55.4075 65.218 54.2731 63.6652 51.3308 62.644C38.1297 58.0619 25.0234 53.2065 11.5341 48.3344Z" fill="black"/>
</svg>
