<svg width="134" height="124" viewBox="0 0 134 124" fill="none" xmlns="http://www.w3.org/2000/svg">
<mask id="path-1-outside-1_52_20" maskUnits="userSpaceOnUse" x="-0.999756" y="0" width="136" height="125" fill="black">
<rect fill="white" x="-0.999756" width="136" height="125"/>
<path d="M14.6968 69.018C13.7395 67.7217 12.9621 66.3718 12.4729 64.8493C11.7394 62.5668 11.8751 60.3374 12.7723 58.141C13.4256 56.5415 14.395 55.1534 15.5372 53.8816C17.6987 51.4749 20.2941 49.6574 23.0735 48.097C26.1762 46.3552 29.4453 45.01 32.8162 43.9178C33.5729 43.6727 34.3338 43.4415 35.1342 43.191C35.0449 42.7858 34.9608 42.3855 34.8683 41.9872C34.381 39.8886 33.992 37.7717 33.724 35.6317C33.5221 34.0192 33.3457 32.4052 33.3302 30.7765C33.3223 29.9458 33.2482 29.1139 33.2751 28.285C33.3682 25.4074 33.6786 22.5632 34.6212 19.8237C35.2328 18.0464 36.0903 16.4142 37.3575 15.0371C38.46 13.8391 39.802 13.0131 41.3509 12.551C42.9368 12.0778 44.5502 12.0394 46.1813 12.2213C49.4057 12.5809 52.3374 13.815 55.1665 15.3515C58.5892 17.2103 61.6831 19.5522 64.6125 22.1294C65.4257 22.8447 66.2082 23.5965 67.0494 24.3727C67.1911 24.2508 67.3545 24.1255 67.5008 23.982C69.758 21.768 72.1555 19.7289 74.7205 17.896C76.4973 16.6263 78.3459 15.4806 80.2941 14.5073C82.4642 13.4231 84.7128 12.5587 87.1109 12.1901C89.1581 11.8755 91.1991 11.8964 93.1668 12.6756C95.3239 13.5298 96.8769 15.0954 98.0299 17.1016C99.181 19.1045 99.8154 21.2958 100.202 23.5685C100.428 24.8924 100.584 26.2252 100.606 27.5716C100.625 28.6856 100.704 29.8019 100.658 30.9129C100.587 32.6333 100.498 34.3561 100.222 36.0602C99.9576 37.6948 99.7039 39.3314 99.4202 40.9626C99.29 41.7118 99.0993 42.45 98.9246 43.2456C99.1978 43.3396 99.4658 43.4414 99.7393 43.5243C102.626 44.3987 105.44 45.4673 108.171 46.7635C110.122 47.6894 112.003 48.7448 113.794 49.9614C115.508 51.1254 117.107 52.439 118.498 53.9924C119.987 55.6535 121.177 57.4992 121.728 59.7209C122.279 61.9443 121.967 64.0644 121.032 66.1141C120.223 67.8851 119.057 69.3852 117.706 70.756C115.477 73.0168 112.893 74.7582 110.144 76.2696C107.474 77.7378 104.687 78.9257 101.819 79.923C100.945 80.2272 100.065 80.5138 99.1737 80.813C99.3638 81.7149 99.578 82.5997 99.7332 83.4952C100.01 85.0935 100.276 86.6946 100.5 88.3013C100.681 89.5977 100.795 90.9033 100.804 92.2166C100.812 93.314 100.899 94.4135 100.856 95.508C100.746 98.2325 100.425 100.93 99.5813 103.534C99.0151 105.281 98.2453 106.923 97.1026 108.365C95.5025 110.384 93.4525 111.567 90.9247 111.894C88.9592 112.148 87.0344 111.929 85.1338 111.415C82.0691 110.587 79.2719 109.152 76.602 107.439C73.9221 105.719 71.4341 103.741 69.0944 101.566C68.481 100.996 67.8678 100.425 67.2138 99.8171C67.0493 99.961 66.8743 100.1 66.7145 100.256C63.5087 103.378 60.0292 106.131 56.1635 108.348C53.8464 109.677 51.4235 110.769 48.8313 111.425C47.5516 111.749 46.2538 111.967 44.9352 111.982C42.7625 112.008 40.7012 111.575 38.8751 110.292C37.4938 109.321 36.4524 108.04 35.6505 106.547C34.5898 104.573 33.9783 102.445 33.6578 100.23C33.5062 99.1825 33.3954 98.1244 33.3433 97.0671C33.2771 95.7239 33.2275 94.374 33.2821 93.0317C33.3642 91.0128 33.5787 89.0032 33.894 87.0046C34.1939 85.1034 34.567 83.2196 35.0109 81.3493C35.0294 81.2713 35.0375 81.1907 35.0581 81.0642C34.5971 80.9163 34.1367 80.7674 33.6756 80.6209C31.2365 79.8459 28.8525 78.9251 26.535 77.8244C24.3173 76.771 22.1819 75.5711 20.1706 74.1457C18.6418 73.0623 17.2112 71.8586 15.9272 70.4812C15.5018 70.0248 15.1202 69.5258 14.6968 69.018ZM50.8738 79.2234C50.896 79.2226 50.9182 79.2218 50.9404 79.221C50.9337 79.1862 50.927 79.1515 50.8965 79.052C50.8833 79.0215 50.8738 78.9886 50.8564 78.9609C48.7237 75.5593 46.7253 72.0779 44.8991 68.4941C44.7765 68.2534 44.6317 68.0246 44.469 67.7409C43.1346 70.9975 41.9538 74.2248 40.9538 77.5458C41.0611 77.5872 41.1326 77.6272 41.2089 77.6424C42.2752 77.8558 43.3392 78.0843 44.4099 78.272C45.7827 78.5126 47.159 78.7352 48.538 78.9354C49.3072 79.0471 50.0849 79.0977 50.8738 79.2234ZM76.9561 44.2796C75.8873 44.2108 74.8192 44.123 73.7494 44.078C72.2544 44.0151 70.7583 43.9679 69.2621 43.9443C67.86 43.9222 66.457 43.9251 65.0547 43.9438C63.7212 43.9615 62.3875 43.9983 61.0551 44.0554C59.8227 44.1081 58.5923 44.2092 57.3599 44.2645C57.0996 44.2762 56.9513 44.3592 56.8126 44.5807C55.6642 46.4159 54.4718 48.223 53.3538 50.0772C51.1509 53.7304 49.1587 57.5035 47.2967 61.3503C47.0503 61.8593 47.0687 62.2362 47.3069 62.7236C48.7316 65.6394 50.2243 68.5168 51.8276 71.3343C53.3826 74.0668 55.0319 76.7387 56.7635 79.3576C56.8617 79.5062 56.9753 79.6441 57.08 79.7846C63.7659 80.1975 70.4242 80.2162 77.0748 79.7389C80.789 74.0052 84.1386 68.1019 87.0696 61.949C86.4374 60.6926 85.8478 59.4311 85.1811 58.2138C83.6646 55.4444 82.1481 52.6736 80.5581 49.9482C79.4424 48.0356 78.2057 46.1968 76.9561 44.2796ZM31.6887 74.8059C33.2023 75.4068 34.7383 75.9385 36.3228 76.3888C36.3694 76.2811 36.4154 76.1953 36.4448 76.1038C36.7544 75.142 37.0522 74.1761 37.3708 73.2174C38.5895 69.5513 40.0077 65.9662 41.5891 62.4484C41.7181 62.1613 41.7731 61.9137 41.5938 61.6129C41.4093 61.3034 41.2948 60.9506 41.1489 60.617C39.6962 57.2954 38.3818 53.9181 37.248 50.4684C36.965 49.6074 36.6905 48.7434 36.4 47.8429C35.4599 48.1412 34.5431 48.417 33.6359 48.7227C30.9151 49.6392 28.264 50.7278 25.7347 52.1114C24.0103 53.0548 22.3562 54.1091 20.8455 55.3851C19.6486 56.3962 18.5547 57.5065 17.7172 58.8566C17.2064 59.6802 16.8217 60.5612 16.7363 61.5388C16.6423 62.615 16.9696 63.6037 17.4565 64.5446C18.0486 65.6889 18.8553 66.671 19.7452 67.5725C20.6923 68.532 21.7375 69.3799 22.8338 70.1615C24.5606 71.3926 26.3971 72.4276 28.2991 73.338C29.3866 73.8585 30.5103 74.2997 31.6887 74.8059ZM41.3405 106.161C42.2559 106.887 43.331 107.11 44.4495 107.149C45.5923 107.19 46.7113 106.991 47.816 106.7C49.6515 106.216 51.3805 105.465 53.0578 104.571C54.7647 103.662 56.3777 102.602 57.9411 101.46C59.6097 100.241 61.179 98.8956 62.7032 97.4959C63.1004 97.1311 63.4518 96.7142 63.8377 96.3071C63.7968 96.2494 63.7475 96.1647 63.6843 96.093C63.1947 95.5375 62.6992 94.9874 62.2114 94.4303C60.433 92.3987 58.7458 90.2898 57.1313 88.1208C56.3142 87.023 55.5251 85.9032 54.7282 84.7897C54.5699 84.5685 54.4117 84.3884 54.1089 84.3773C53.623 84.3595 53.1365 84.3215 52.6534 84.2645C50.7707 84.0427 48.8839 83.8476 47.0088 83.5708C45.1164 83.2914 43.2352 82.9311 41.3508 82.597C40.7938 82.4983 40.2422 82.3679 39.6475 82.2436C39.4323 83.2389 39.1913 84.2022 39.0205 85.1783C38.7609 86.6617 38.5481 88.1537 38.3189 89.6426C38.0865 91.1522 38.0191 92.6766 37.9728 94.1998C37.9238 95.8112 38.0318 97.4175 38.2479 99.0159C38.442 100.452 38.7593 101.854 39.3072 103.195C39.7635 104.311 40.3448 105.341 41.3405 106.161ZM88.5679 83.2472C87.5246 83.3987 86.4829 83.5634 85.4375 83.6988C83.8622 83.9028 82.2846 84.0878 80.7075 84.2775C80.3861 84.3162 80.0073 84.2445 79.7559 84.3972C79.4871 84.5606 79.3329 84.9257 79.1371 85.2088C76.8736 88.4822 74.4975 91.666 71.9181 94.6879C71.4598 95.2247 70.9951 95.7558 70.5241 96.3002C70.6027 96.3898 70.6614 96.4689 70.7318 96.535C71.4869 97.243 72.2315 97.9634 73.0024 98.653C75.9402 101.281 79.0837 103.603 82.6206 105.331C83.899 105.955 85.2173 106.474 86.5968 106.811C87.8985 107.13 89.2123 107.326 90.5528 107.079C91.4873 106.906 92.3046 106.521 92.9902 105.82C93.9006 104.889 94.4626 103.755 94.9071 102.551C95.6123 100.642 95.9322 98.6434 96.0542 96.6199C96.1219 95.4981 96.1922 94.374 96.1252 93.2387C96.0519 91.9967 96.0104 90.7528 95.8842 89.5141C95.6823 87.5338 95.3598 85.5736 94.9397 83.63C94.8258 83.1028 94.7022 82.5778 94.5875 82.0717C92.5678 82.4638 90.6091 82.844 88.5679 83.2472ZM61.9232 29.8983C62.5263 29.2134 63.1295 28.5285 63.7373 27.8383C63.2565 27.3787 62.8277 26.9478 62.3772 26.542C60.5838 24.9261 58.7375 23.3776 56.7609 21.9978C54.1454 20.1721 51.4124 18.5797 48.3683 17.6121C46.8866 17.1411 45.3794 16.8296 43.8155 16.9681C42.4795 17.0864 41.3456 17.6076 40.4914 18.7083C39.7612 19.6493 39.2879 20.719 38.9386 21.8486C38.358 23.7265 38.0933 25.6648 38.04 27.6256C37.9796 29.8513 38.0446 32.0741 38.3177 34.29C38.6141 36.6937 39.0287 39.0724 39.5958 41.424C39.6405 41.6095 39.6872 41.7946 39.7317 41.9746C39.8576 41.965 39.924 41.9683 39.9865 41.9539C42.2814 41.4271 44.5927 40.9934 46.9179 40.6294C49.2565 40.2633 51.5997 39.9421 53.9576 39.7408C54.2332 39.7173 54.4327 39.6169 54.605 39.3784C55.7252 37.8279 56.8285 36.2629 57.9989 34.7524C59.2593 33.1258 60.587 31.5538 61.9232 29.8983ZM70.8938 28.439C72.2057 30.0021 73.5656 31.5262 74.8173 33.1381C76.3932 35.1677 77.8857 37.2652 79.4 39.3442C79.5937 39.6101 79.7965 39.7619 80.1197 39.7404C80.1999 39.7351 80.2819 39.7487 80.3624 39.759C82.3872 40.0187 84.4172 40.2429 86.4352 40.55C88.3103 40.8354 90.174 41.2007 92.0397 41.5483C92.799 41.6898 93.55 41.8776 94.3158 42.0467C94.3583 41.8989 94.398 41.7905 94.4205 41.6785C94.7041 40.2662 95.0393 38.8619 95.2533 37.4386C95.5138 35.7053 95.7337 33.9603 95.8531 32.212C95.9364 30.993 95.9801 29.7663 95.9293 28.5333C95.8554 26.737 95.701 24.9599 95.3077 23.2091C94.9748 21.7272 94.4806 20.3068 93.637 19.0361C92.9552 18.009 92.072 17.2408 90.8558 17.0053C90.2072 16.8797 89.5302 16.8239 88.8713 16.8544C87.1656 16.9336 85.5491 17.4425 83.9829 18.1032C81.0774 19.3289 78.4195 20.9985 75.947 22.967C74.4612 24.1499 73.0374 25.4148 71.5975 26.657C71.1781 27.0188 70.7992 27.4296 70.3849 27.8343C70.5543 28.0383 70.6994 28.2131 70.8938 28.439ZM116.911 60.1467C116.8 59.9067 116.701 59.6597 116.575 59.4276C115.825 58.0401 114.785 56.9018 113.621 55.8736C111.901 54.3546 109.99 53.1277 107.983 52.0506C105.182 50.5476 102.244 49.3873 99.2351 48.4072C98.7162 48.2382 98.1906 48.091 97.6477 47.9276C96.1741 52.7584 94.3599 57.3937 92.3001 61.936C94.4398 66.5533 96.3368 71.2628 97.8604 76.1405C98.0417 76.0883 98.1951 76.047 98.3467 76C100.697 75.2709 103.001 74.4112 105.235 73.368C108.159 72.0025 110.954 70.4166 113.407 68.2601C114.662 67.1569 115.789 65.9408 116.578 64.4392C117.286 63.092 117.516 61.6893 116.911 60.1467ZM91.6891 72.7108C91.032 71.0019 90.3786 69.2913 89.6028 67.5493C87.5909 71.4883 85.4589 75.2648 83.1945 78.9632C83.178 78.9902 83.1706 79.0239 83.1631 79.0555C83.1595 79.0707 83.1621 79.0901 83.1686 79.1044C83.1739 79.116 83.1893 79.1228 83.2435 79.1675C84.8839 78.9095 86.5624 78.6514 88.2389 78.3805C90.9609 77.9407 92.9048 77.5155 93.2859 77.2701C92.7621 75.7822 92.2347 74.2842 91.6891 72.7108ZM66.1483 91.7062C66.4859 92.0836 66.8235 92.4611 67.1861 92.8666C69.4639 90.2948 71.5767 87.6239 73.6265 84.7513C73.1462 84.791 72.7938 84.8386 72.4405 84.8462C70.5872 84.8862 68.7338 84.9339 66.8803 84.9435C65.4824 84.9507 64.0841 84.9086 62.686 84.8806C62.0156 84.8671 61.3454 84.8354 60.6244 84.8102C60.7279 84.9693 60.7996 85.0961 60.8868 85.2105C61.276 85.7213 61.6584 86.2382 62.0638 86.7354C63.4041 88.3796 64.7533 90.0163 66.1483 91.7062ZM66.8886 31.4661C66.2631 32.187 65.6165 32.8901 65.0165 33.6325C63.5986 35.387 62.2023 37.1599 60.8002 38.9277C60.7367 39.0078 60.7015 39.1114 60.6468 39.2162C62.8058 39.1674 64.919 39.0821 67.0321 39.0825C69.1512 39.0829 71.2703 39.1687 73.4525 39.2186C73.3409 39.0501 73.2778 38.9379 73.1992 38.8385C71.7587 37.0168 70.3236 35.1905 68.8702 33.3794C68.3655 32.7504 67.8183 32.1566 67.2809 31.5557C67.1996 31.4647 67.1289 31.2576 66.8886 31.4661ZM89.9148 55.5001C91.0883 52.6265 92.1509 49.7122 93.0581 46.7133C89.7572 45.9529 86.483 45.3723 83.0839 44.9346C85.4193 48.6882 87.5345 52.4522 89.5642 56.349C89.695 56.0276 89.7884 55.798 89.9148 55.5001ZM46.9747 51.632C48.2625 49.4116 49.5504 47.1911 50.8585 44.9359C47.5303 45.3602 44.2617 45.9197 41.0223 46.669C41.4844 48.4997 43.942 55.3649 44.5043 56.2408C45.3216 54.7217 46.1345 53.2108 46.9747 51.632Z"/>
</mask>
<path d="M14.6968 69.018C13.7395 67.7217 12.9621 66.3718 12.4729 64.8493C11.7394 62.5668 11.8751 60.3374 12.7723 58.141C13.4256 56.5415 14.395 55.1534 15.5372 53.8816C17.6987 51.4749 20.2941 49.6574 23.0735 48.097C26.1762 46.3552 29.4453 45.01 32.8162 43.9178C33.5729 43.6727 34.3338 43.4415 35.1342 43.191C35.0449 42.7858 34.9608 42.3855 34.8683 41.9872C34.381 39.8886 33.992 37.7717 33.724 35.6317C33.5221 34.0192 33.3457 32.4052 33.3302 30.7765C33.3223 29.9458 33.2482 29.1139 33.2751 28.285C33.3682 25.4074 33.6786 22.5632 34.6212 19.8237C35.2328 18.0464 36.0903 16.4142 37.3575 15.0371C38.46 13.8391 39.802 13.0131 41.3509 12.551C42.9368 12.0778 44.5502 12.0394 46.1813 12.2213C49.4057 12.5809 52.3374 13.815 55.1665 15.3515C58.5892 17.2103 61.6831 19.5522 64.6125 22.1294C65.4257 22.8447 66.2082 23.5965 67.0494 24.3727C67.1911 24.2508 67.3545 24.1255 67.5008 23.982C69.758 21.768 72.1555 19.7289 74.7205 17.896C76.4973 16.6263 78.3459 15.4806 80.2941 14.5073C82.4642 13.4231 84.7128 12.5587 87.1109 12.1901C89.1581 11.8755 91.1991 11.8964 93.1668 12.6756C95.3239 13.5298 96.8769 15.0954 98.0299 17.1016C99.181 19.1045 99.8154 21.2958 100.202 23.5685C100.428 24.8924 100.584 26.2252 100.606 27.5716C100.625 28.6856 100.704 29.8019 100.658 30.9129C100.587 32.6333 100.498 34.3561 100.222 36.0602C99.9576 37.6948 99.7039 39.3314 99.4202 40.9626C99.29 41.7118 99.0993 42.45 98.9246 43.2456C99.1978 43.3396 99.4658 43.4414 99.7393 43.5243C102.626 44.3987 105.44 45.4673 108.171 46.7635C110.122 47.6894 112.003 48.7448 113.794 49.9614C115.508 51.1254 117.107 52.439 118.498 53.9924C119.987 55.6535 121.177 57.4992 121.728 59.7209C122.279 61.9443 121.967 64.0644 121.032 66.1141C120.223 67.8851 119.057 69.3852 117.706 70.756C115.477 73.0168 112.893 74.7582 110.144 76.2696C107.474 77.7378 104.687 78.9257 101.819 79.923C100.945 80.2272 100.065 80.5138 99.1737 80.813C99.3638 81.7149 99.578 82.5997 99.7332 83.4952C100.01 85.0935 100.276 86.6946 100.5 88.3013C100.681 89.5977 100.795 90.9033 100.804 92.2166C100.812 93.314 100.899 94.4135 100.856 95.508C100.746 98.2325 100.425 100.93 99.5813 103.534C99.0151 105.281 98.2453 106.923 97.1026 108.365C95.5025 110.384 93.4525 111.567 90.9247 111.894C88.9592 112.148 87.0344 111.929 85.1338 111.415C82.0691 110.587 79.2719 109.152 76.602 107.439C73.9221 105.719 71.4341 103.741 69.0944 101.566C68.481 100.996 67.8678 100.425 67.2138 99.8171C67.0493 99.961 66.8743 100.1 66.7145 100.256C63.5087 103.378 60.0292 106.131 56.1635 108.348C53.8464 109.677 51.4235 110.769 48.8313 111.425C47.5516 111.749 46.2538 111.967 44.9352 111.982C42.7625 112.008 40.7012 111.575 38.8751 110.292C37.4938 109.321 36.4524 108.04 35.6505 106.547C34.5898 104.573 33.9783 102.445 33.6578 100.23C33.5062 99.1825 33.3954 98.1244 33.3433 97.0671C33.2771 95.7239 33.2275 94.374 33.2821 93.0317C33.3642 91.0128 33.5787 89.0032 33.894 87.0046C34.1939 85.1034 34.567 83.2196 35.0109 81.3493C35.0294 81.2713 35.0375 81.1907 35.0581 81.0642C34.5971 80.9163 34.1367 80.7674 33.6756 80.6209C31.2365 79.8459 28.8525 78.9251 26.535 77.8244C24.3173 76.771 22.1819 75.5711 20.1706 74.1457C18.6418 73.0623 17.2112 71.8586 15.9272 70.4812C15.5018 70.0248 15.1202 69.5258 14.6968 69.018ZM50.8738 79.2234C50.896 79.2226 50.9182 79.2218 50.9404 79.221C50.9337 79.1862 50.927 79.1515 50.8965 79.052C50.8833 79.0215 50.8738 78.9886 50.8564 78.9609C48.7237 75.5593 46.7253 72.0779 44.8991 68.4941C44.7765 68.2534 44.6317 68.0246 44.469 67.7409C43.1346 70.9975 41.9538 74.2248 40.9538 77.5458C41.0611 77.5872 41.1326 77.6272 41.2089 77.6424C42.2752 77.8558 43.3392 78.0843 44.4099 78.272C45.7827 78.5126 47.159 78.7352 48.538 78.9354C49.3072 79.0471 50.0849 79.0977 50.8738 79.2234ZM76.9561 44.2796C75.8873 44.2108 74.8192 44.123 73.7494 44.078C72.2544 44.0151 70.7583 43.9679 69.2621 43.9443C67.86 43.9222 66.457 43.9251 65.0547 43.9438C63.7212 43.9615 62.3875 43.9983 61.0551 44.0554C59.8227 44.1081 58.5923 44.2092 57.3599 44.2645C57.0996 44.2762 56.9513 44.3592 56.8126 44.5807C55.6642 46.4159 54.4718 48.223 53.3538 50.0772C51.1509 53.7304 49.1587 57.5035 47.2967 61.3503C47.0503 61.8593 47.0687 62.2362 47.3069 62.7236C48.7316 65.6394 50.2243 68.5168 51.8276 71.3343C53.3826 74.0668 55.0319 76.7387 56.7635 79.3576C56.8617 79.5062 56.9753 79.6441 57.08 79.7846C63.7659 80.1975 70.4242 80.2162 77.0748 79.7389C80.789 74.0052 84.1386 68.1019 87.0696 61.949C86.4374 60.6926 85.8478 59.4311 85.1811 58.2138C83.6646 55.4444 82.1481 52.6736 80.5581 49.9482C79.4424 48.0356 78.2057 46.1968 76.9561 44.2796ZM31.6887 74.8059C33.2023 75.4068 34.7383 75.9385 36.3228 76.3888C36.3694 76.2811 36.4154 76.1953 36.4448 76.1038C36.7544 75.142 37.0522 74.1761 37.3708 73.2174C38.5895 69.5513 40.0077 65.9662 41.5891 62.4484C41.7181 62.1613 41.7731 61.9137 41.5938 61.6129C41.4093 61.3034 41.2948 60.9506 41.1489 60.617C39.6962 57.2954 38.3818 53.9181 37.248 50.4684C36.965 49.6074 36.6905 48.7434 36.4 47.8429C35.4599 48.1412 34.5431 48.417 33.6359 48.7227C30.9151 49.6392 28.264 50.7278 25.7347 52.1114C24.0103 53.0548 22.3562 54.1091 20.8455 55.3851C19.6486 56.3962 18.5547 57.5065 17.7172 58.8566C17.2064 59.6802 16.8217 60.5612 16.7363 61.5388C16.6423 62.615 16.9696 63.6037 17.4565 64.5446C18.0486 65.6889 18.8553 66.671 19.7452 67.5725C20.6923 68.532 21.7375 69.3799 22.8338 70.1615C24.5606 71.3926 26.3971 72.4276 28.2991 73.338C29.3866 73.8585 30.5103 74.2997 31.6887 74.8059ZM41.3405 106.161C42.2559 106.887 43.331 107.11 44.4495 107.149C45.5923 107.19 46.7113 106.991 47.816 106.7C49.6515 106.216 51.3805 105.465 53.0578 104.571C54.7647 103.662 56.3777 102.602 57.9411 101.46C59.6097 100.241 61.179 98.8956 62.7032 97.4959C63.1004 97.1311 63.4518 96.7142 63.8377 96.3071C63.7968 96.2494 63.7475 96.1647 63.6843 96.093C63.1947 95.5375 62.6992 94.9874 62.2114 94.4303C60.433 92.3987 58.7458 90.2898 57.1313 88.1208C56.3142 87.023 55.5251 85.9032 54.7282 84.7897C54.5699 84.5685 54.4117 84.3884 54.1089 84.3773C53.623 84.3595 53.1365 84.3215 52.6534 84.2645C50.7707 84.0427 48.8839 83.8476 47.0088 83.5708C45.1164 83.2914 43.2352 82.9311 41.3508 82.597C40.7938 82.4983 40.2422 82.3679 39.6475 82.2436C39.4323 83.2389 39.1913 84.2022 39.0205 85.1783C38.7609 86.6617 38.5481 88.1537 38.3189 89.6426C38.0865 91.1522 38.0191 92.6766 37.9728 94.1998C37.9238 95.8112 38.0318 97.4175 38.2479 99.0159C38.442 100.452 38.7593 101.854 39.3072 103.195C39.7635 104.311 40.3448 105.341 41.3405 106.161ZM88.5679 83.2472C87.5246 83.3987 86.4829 83.5634 85.4375 83.6988C83.8622 83.9028 82.2846 84.0878 80.7075 84.2775C80.3861 84.3162 80.0073 84.2445 79.7559 84.3972C79.4871 84.5606 79.3329 84.9257 79.1371 85.2088C76.8736 88.4822 74.4975 91.666 71.9181 94.6879C71.4598 95.2247 70.9951 95.7558 70.5241 96.3002C70.6027 96.3898 70.6614 96.4689 70.7318 96.535C71.4869 97.243 72.2315 97.9634 73.0024 98.653C75.9402 101.281 79.0837 103.603 82.6206 105.331C83.899 105.955 85.2173 106.474 86.5968 106.811C87.8985 107.13 89.2123 107.326 90.5528 107.079C91.4873 106.906 92.3046 106.521 92.9902 105.82C93.9006 104.889 94.4626 103.755 94.9071 102.551C95.6123 100.642 95.9322 98.6434 96.0542 96.6199C96.1219 95.4981 96.1922 94.374 96.1252 93.2387C96.0519 91.9967 96.0104 90.7528 95.8842 89.5141C95.6823 87.5338 95.3598 85.5736 94.9397 83.63C94.8258 83.1028 94.7022 82.5778 94.5875 82.0717C92.5678 82.4638 90.6091 82.844 88.5679 83.2472ZM61.9232 29.8983C62.5263 29.2134 63.1295 28.5285 63.7373 27.8383C63.2565 27.3787 62.8277 26.9478 62.3772 26.542C60.5838 24.9261 58.7375 23.3776 56.7609 21.9978C54.1454 20.1721 51.4124 18.5797 48.3683 17.6121C46.8866 17.1411 45.3794 16.8296 43.8155 16.9681C42.4795 17.0864 41.3456 17.6076 40.4914 18.7083C39.7612 19.6493 39.2879 20.719 38.9386 21.8486C38.358 23.7265 38.0933 25.6648 38.04 27.6256C37.9796 29.8513 38.0446 32.0741 38.3177 34.29C38.6141 36.6937 39.0287 39.0724 39.5958 41.424C39.6405 41.6095 39.6872 41.7946 39.7317 41.9746C39.8576 41.965 39.924 41.9683 39.9865 41.9539C42.2814 41.4271 44.5927 40.9934 46.9179 40.6294C49.2565 40.2633 51.5997 39.9421 53.9576 39.7408C54.2332 39.7173 54.4327 39.6169 54.605 39.3784C55.7252 37.8279 56.8285 36.2629 57.9989 34.7524C59.2593 33.1258 60.587 31.5538 61.9232 29.8983ZM70.8938 28.439C72.2057 30.0021 73.5656 31.5262 74.8173 33.1381C76.3932 35.1677 77.8857 37.2652 79.4 39.3442C79.5937 39.6101 79.7965 39.7619 80.1197 39.7404C80.1999 39.7351 80.2819 39.7487 80.3624 39.759C82.3872 40.0187 84.4172 40.2429 86.4352 40.55C88.3103 40.8354 90.174 41.2007 92.0397 41.5483C92.799 41.6898 93.55 41.8776 94.3158 42.0467C94.3583 41.8989 94.398 41.7905 94.4205 41.6785C94.7041 40.2662 95.0393 38.8619 95.2533 37.4386C95.5138 35.7053 95.7337 33.9603 95.8531 32.212C95.9364 30.993 95.9801 29.7663 95.9293 28.5333C95.8554 26.737 95.701 24.9599 95.3077 23.2091C94.9748 21.7272 94.4806 20.3068 93.637 19.0361C92.9552 18.009 92.072 17.2408 90.8558 17.0053C90.2072 16.8797 89.5302 16.8239 88.8713 16.8544C87.1656 16.9336 85.5491 17.4425 83.9829 18.1032C81.0774 19.3289 78.4195 20.9985 75.947 22.967C74.4612 24.1499 73.0374 25.4148 71.5975 26.657C71.1781 27.0188 70.7992 27.4296 70.3849 27.8343C70.5543 28.0383 70.6994 28.2131 70.8938 28.439ZM116.911 60.1467C116.8 59.9067 116.701 59.6597 116.575 59.4276C115.825 58.0401 114.785 56.9018 113.621 55.8736C111.901 54.3546 109.99 53.1277 107.983 52.0506C105.182 50.5476 102.244 49.3873 99.2351 48.4072C98.7162 48.2382 98.1906 48.091 97.6477 47.9276C96.1741 52.7584 94.3599 57.3937 92.3001 61.936C94.4398 66.5533 96.3368 71.2628 97.8604 76.1405C98.0417 76.0883 98.1951 76.047 98.3467 76C100.697 75.2709 103.001 74.4112 105.235 73.368C108.159 72.0025 110.954 70.4166 113.407 68.2601C114.662 67.1569 115.789 65.9408 116.578 64.4392C117.286 63.092 117.516 61.6893 116.911 60.1467ZM91.6891 72.7108C91.032 71.0019 90.3786 69.2913 89.6028 67.5493C87.5909 71.4883 85.4589 75.2648 83.1945 78.9632C83.178 78.9902 83.1706 79.0239 83.1631 79.0555C83.1595 79.0707 83.1621 79.0901 83.1686 79.1044C83.1739 79.116 83.1893 79.1228 83.2435 79.1675C84.8839 78.9095 86.5624 78.6514 88.2389 78.3805C90.9609 77.9407 92.9048 77.5155 93.2859 77.2701C92.7621 75.7822 92.2347 74.2842 91.6891 72.7108ZM66.1483 91.7062C66.4859 92.0836 66.8235 92.4611 67.1861 92.8666C69.4639 90.2948 71.5767 87.6239 73.6265 84.7513C73.1462 84.791 72.7938 84.8386 72.4405 84.8462C70.5872 84.8862 68.7338 84.9339 66.8803 84.9435C65.4824 84.9507 64.0841 84.9086 62.686 84.8806C62.0156 84.8671 61.3454 84.8354 60.6244 84.8102C60.7279 84.9693 60.7996 85.0961 60.8868 85.2105C61.276 85.7213 61.6584 86.2382 62.0638 86.7354C63.4041 88.3796 64.7533 90.0163 66.1483 91.7062ZM66.8886 31.4661C66.2631 32.187 65.6165 32.8901 65.0165 33.6325C63.5986 35.387 62.2023 37.1599 60.8002 38.9277C60.7367 39.0078 60.7015 39.1114 60.6468 39.2162C62.8058 39.1674 64.919 39.0821 67.0321 39.0825C69.1512 39.0829 71.2703 39.1687 73.4525 39.2186C73.3409 39.0501 73.2778 38.9379 73.1992 38.8385C71.7587 37.0168 70.3236 35.1905 68.8702 33.3794C68.3655 32.7504 67.8183 32.1566 67.2809 31.5557C67.1996 31.4647 67.1289 31.2576 66.8886 31.4661ZM89.9148 55.5001C91.0883 52.6265 92.1509 49.7122 93.0581 46.7133C89.7572 45.9529 86.483 45.3723 83.0839 44.9346C85.4193 48.6882 87.5345 52.4522 89.5642 56.349C89.695 56.0276 89.7884 55.798 89.9148 55.5001ZM46.9747 51.632C48.2625 49.4116 49.5504 47.1911 50.8585 44.9359C47.5303 45.3602 44.2617 45.9197 41.0223 46.669C41.4844 48.4997 43.942 55.3649 44.5043 56.2408C45.3216 54.7217 46.1345 53.2108 46.9747 51.632Z" fill="#1142D8"/>
<path d="M14.6968 69.018C13.7395 67.7217 12.9621 66.3718 12.4729 64.8493C11.7394 62.5668 11.8751 60.3374 12.7723 58.141C13.4256 56.5415 14.395 55.1534 15.5372 53.8816C17.6987 51.4749 20.2941 49.6574 23.0735 48.097C26.1762 46.3552 29.4453 45.01 32.8162 43.9178C33.5729 43.6727 34.3338 43.4415 35.1342 43.191C35.0449 42.7858 34.9608 42.3855 34.8683 41.9872C34.381 39.8886 33.992 37.7717 33.724 35.6317C33.5221 34.0192 33.3457 32.4052 33.3302 30.7765C33.3223 29.9458 33.2482 29.1139 33.2751 28.285C33.3682 25.4074 33.6786 22.5632 34.6212 19.8237C35.2328 18.0464 36.0903 16.4142 37.3575 15.0371C38.46 13.8391 39.802 13.0131 41.3509 12.551C42.9368 12.0778 44.5502 12.0394 46.1813 12.2213C49.4057 12.5809 52.3374 13.815 55.1665 15.3515C58.5892 17.2103 61.6831 19.5522 64.6125 22.1294C65.4257 22.8447 66.2082 23.5965 67.0494 24.3727C67.1911 24.2508 67.3545 24.1255 67.5008 23.982C69.758 21.768 72.1555 19.7289 74.7205 17.896C76.4973 16.6263 78.3459 15.4806 80.2941 14.5073C82.4642 13.4231 84.7128 12.5587 87.1109 12.1901C89.1581 11.8755 91.1991 11.8964 93.1668 12.6756C95.3239 13.5298 96.8769 15.0954 98.0299 17.1016C99.181 19.1045 99.8154 21.2958 100.202 23.5685C100.428 24.8924 100.584 26.2252 100.606 27.5716C100.625 28.6856 100.704 29.8019 100.658 30.9129C100.587 32.6333 100.498 34.3561 100.222 36.0602C99.9576 37.6948 99.7039 39.3314 99.4202 40.9626C99.29 41.7118 99.0993 42.45 98.9246 43.2456C99.1978 43.3396 99.4658 43.4414 99.7393 43.5243C102.626 44.3987 105.44 45.4673 108.171 46.7635C110.122 47.6894 112.003 48.7448 113.794 49.9614C115.508 51.1254 117.107 52.439 118.498 53.9924C119.987 55.6535 121.177 57.4992 121.728 59.7209C122.279 61.9443 121.967 64.0644 121.032 66.1141C120.223 67.8851 119.057 69.3852 117.706 70.756C115.477 73.0168 112.893 74.7582 110.144 76.2696C107.474 77.7378 104.687 78.9257 101.819 79.923C100.945 80.2272 100.065 80.5138 99.1737 80.813C99.3638 81.7149 99.578 82.5997 99.7332 83.4952C100.01 85.0935 100.276 86.6946 100.5 88.3013C100.681 89.5977 100.795 90.9033 100.804 92.2166C100.812 93.314 100.899 94.4135 100.856 95.508C100.746 98.2325 100.425 100.93 99.5813 103.534C99.0151 105.281 98.2453 106.923 97.1026 108.365C95.5025 110.384 93.4525 111.567 90.9247 111.894C88.9592 112.148 87.0344 111.929 85.1338 111.415C82.0691 110.587 79.2719 109.152 76.602 107.439C73.9221 105.719 71.4341 103.741 69.0944 101.566C68.481 100.996 67.8678 100.425 67.2138 99.8171C67.0493 99.961 66.8743 100.1 66.7145 100.256C63.5087 103.378 60.0292 106.131 56.1635 108.348C53.8464 109.677 51.4235 110.769 48.8313 111.425C47.5516 111.749 46.2538 111.967 44.9352 111.982C42.7625 112.008 40.7012 111.575 38.8751 110.292C37.4938 109.321 36.4524 108.04 35.6505 106.547C34.5898 104.573 33.9783 102.445 33.6578 100.23C33.5062 99.1825 33.3954 98.1244 33.3433 97.0671C33.2771 95.7239 33.2275 94.374 33.2821 93.0317C33.3642 91.0128 33.5787 89.0032 33.894 87.0046C34.1939 85.1034 34.567 83.2196 35.0109 81.3493C35.0294 81.2713 35.0375 81.1907 35.0581 81.0642C34.5971 80.9163 34.1367 80.7674 33.6756 80.6209C31.2365 79.8459 28.8525 78.9251 26.535 77.8244C24.3173 76.771 22.1819 75.5711 20.1706 74.1457C18.6418 73.0623 17.2112 71.8586 15.9272 70.4812C15.5018 70.0248 15.1202 69.5258 14.6968 69.018ZM50.8738 79.2234C50.896 79.2226 50.9182 79.2218 50.9404 79.221C50.9337 79.1862 50.927 79.1515 50.8965 79.052C50.8833 79.0215 50.8738 78.9886 50.8564 78.9609C48.7237 75.5593 46.7253 72.0779 44.8991 68.4941C44.7765 68.2534 44.6317 68.0246 44.469 67.7409C43.1346 70.9975 41.9538 74.2248 40.9538 77.5458C41.0611 77.5872 41.1326 77.6272 41.2089 77.6424C42.2752 77.8558 43.3392 78.0843 44.4099 78.272C45.7827 78.5126 47.159 78.7352 48.538 78.9354C49.3072 79.0471 50.0849 79.0977 50.8738 79.2234ZM76.9561 44.2796C75.8873 44.2108 74.8192 44.123 73.7494 44.078C72.2544 44.0151 70.7583 43.9679 69.2621 43.9443C67.86 43.9222 66.457 43.9251 65.0547 43.9438C63.7212 43.9615 62.3875 43.9983 61.0551 44.0554C59.8227 44.1081 58.5923 44.2092 57.3599 44.2645C57.0996 44.2762 56.9513 44.3592 56.8126 44.5807C55.6642 46.4159 54.4718 48.223 53.3538 50.0772C51.1509 53.7304 49.1587 57.5035 47.2967 61.3503C47.0503 61.8593 47.0687 62.2362 47.3069 62.7236C48.7316 65.6394 50.2243 68.5168 51.8276 71.3343C53.3826 74.0668 55.0319 76.7387 56.7635 79.3576C56.8617 79.5062 56.9753 79.6441 57.08 79.7846C63.7659 80.1975 70.4242 80.2162 77.0748 79.7389C80.789 74.0052 84.1386 68.1019 87.0696 61.949C86.4374 60.6926 85.8478 59.4311 85.1811 58.2138C83.6646 55.4444 82.1481 52.6736 80.5581 49.9482C79.4424 48.0356 78.2057 46.1968 76.9561 44.2796ZM31.6887 74.8059C33.2023 75.4068 34.7383 75.9385 36.3228 76.3888C36.3694 76.2811 36.4154 76.1953 36.4448 76.1038C36.7544 75.142 37.0522 74.1761 37.3708 73.2174C38.5895 69.5513 40.0077 65.9662 41.5891 62.4484C41.7181 62.1613 41.7731 61.9137 41.5938 61.6129C41.4093 61.3034 41.2948 60.9506 41.1489 60.617C39.6962 57.2954 38.3818 53.9181 37.248 50.4684C36.965 49.6074 36.6905 48.7434 36.4 47.8429C35.4599 48.1412 34.5431 48.417 33.6359 48.7227C30.9151 49.6392 28.264 50.7278 25.7347 52.1114C24.0103 53.0548 22.3562 54.1091 20.8455 55.3851C19.6486 56.3962 18.5547 57.5065 17.7172 58.8566C17.2064 59.6802 16.8217 60.5612 16.7363 61.5388C16.6423 62.615 16.9696 63.6037 17.4565 64.5446C18.0486 65.6889 18.8553 66.671 19.7452 67.5725C20.6923 68.532 21.7375 69.3799 22.8338 70.1615C24.5606 71.3926 26.3971 72.4276 28.2991 73.338C29.3866 73.8585 30.5103 74.2997 31.6887 74.8059ZM41.3405 106.161C42.2559 106.887 43.331 107.11 44.4495 107.149C45.5923 107.19 46.7113 106.991 47.816 106.7C49.6515 106.216 51.3805 105.465 53.0578 104.571C54.7647 103.662 56.3777 102.602 57.9411 101.46C59.6097 100.241 61.179 98.8956 62.7032 97.4959C63.1004 97.1311 63.4518 96.7142 63.8377 96.3071C63.7968 96.2494 63.7475 96.1647 63.6843 96.093C63.1947 95.5375 62.6992 94.9874 62.2114 94.4303C60.433 92.3987 58.7458 90.2898 57.1313 88.1208C56.3142 87.023 55.5251 85.9032 54.7282 84.7897C54.5699 84.5685 54.4117 84.3884 54.1089 84.3773C53.623 84.3595 53.1365 84.3215 52.6534 84.2645C50.7707 84.0427 48.8839 83.8476 47.0088 83.5708C45.1164 83.2914 43.2352 82.9311 41.3508 82.597C40.7938 82.4983 40.2422 82.3679 39.6475 82.2436C39.4323 83.2389 39.1913 84.2022 39.0205 85.1783C38.7609 86.6617 38.5481 88.1537 38.3189 89.6426C38.0865 91.1522 38.0191 92.6766 37.9728 94.1998C37.9238 95.8112 38.0318 97.4175 38.2479 99.0159C38.442 100.452 38.7593 101.854 39.3072 103.195C39.7635 104.311 40.3448 105.341 41.3405 106.161ZM88.5679 83.2472C87.5246 83.3987 86.4829 83.5634 85.4375 83.6988C83.8622 83.9028 82.2846 84.0878 80.7075 84.2775C80.3861 84.3162 80.0073 84.2445 79.7559 84.3972C79.4871 84.5606 79.3329 84.9257 79.1371 85.2088C76.8736 88.4822 74.4975 91.666 71.9181 94.6879C71.4598 95.2247 70.9951 95.7558 70.5241 96.3002C70.6027 96.3898 70.6614 96.4689 70.7318 96.535C71.4869 97.243 72.2315 97.9634 73.0024 98.653C75.9402 101.281 79.0837 103.603 82.6206 105.331C83.899 105.955 85.2173 106.474 86.5968 106.811C87.8985 107.13 89.2123 107.326 90.5528 107.079C91.4873 106.906 92.3046 106.521 92.9902 105.82C93.9006 104.889 94.4626 103.755 94.9071 102.551C95.6123 100.642 95.9322 98.6434 96.0542 96.6199C96.1219 95.4981 96.1922 94.374 96.1252 93.2387C96.0519 91.9967 96.0104 90.7528 95.8842 89.5141C95.6823 87.5338 95.3598 85.5736 94.9397 83.63C94.8258 83.1028 94.7022 82.5778 94.5875 82.0717C92.5678 82.4638 90.6091 82.844 88.5679 83.2472ZM61.9232 29.8983C62.5263 29.2134 63.1295 28.5285 63.7373 27.8383C63.2565 27.3787 62.8277 26.9478 62.3772 26.542C60.5838 24.9261 58.7375 23.3776 56.7609 21.9978C54.1454 20.1721 51.4124 18.5797 48.3683 17.6121C46.8866 17.1411 45.3794 16.8296 43.8155 16.9681C42.4795 17.0864 41.3456 17.6076 40.4914 18.7083C39.7612 19.6493 39.2879 20.719 38.9386 21.8486C38.358 23.7265 38.0933 25.6648 38.04 27.6256C37.9796 29.8513 38.0446 32.0741 38.3177 34.29C38.6141 36.6937 39.0287 39.0724 39.5958 41.424C39.6405 41.6095 39.6872 41.7946 39.7317 41.9746C39.8576 41.965 39.924 41.9683 39.9865 41.9539C42.2814 41.4271 44.5927 40.9934 46.9179 40.6294C49.2565 40.2633 51.5997 39.9421 53.9576 39.7408C54.2332 39.7173 54.4327 39.6169 54.605 39.3784C55.7252 37.8279 56.8285 36.2629 57.9989 34.7524C59.2593 33.1258 60.587 31.5538 61.9232 29.8983ZM70.8938 28.439C72.2057 30.0021 73.5656 31.5262 74.8173 33.1381C76.3932 35.1677 77.8857 37.2652 79.4 39.3442C79.5937 39.6101 79.7965 39.7619 80.1197 39.7404C80.1999 39.7351 80.2819 39.7487 80.3624 39.759C82.3872 40.0187 84.4172 40.2429 86.4352 40.55C88.3103 40.8354 90.174 41.2007 92.0397 41.5483C92.799 41.6898 93.55 41.8776 94.3158 42.0467C94.3583 41.8989 94.398 41.7905 94.4205 41.6785C94.7041 40.2662 95.0393 38.8619 95.2533 37.4386C95.5138 35.7053 95.7337 33.9603 95.8531 32.212C95.9364 30.993 95.9801 29.7663 95.9293 28.5333C95.8554 26.737 95.701 24.9599 95.3077 23.2091C94.9748 21.7272 94.4806 20.3068 93.637 19.0361C92.9552 18.009 92.072 17.2408 90.8558 17.0053C90.2072 16.8797 89.5302 16.8239 88.8713 16.8544C87.1656 16.9336 85.5491 17.4425 83.9829 18.1032C81.0774 19.3289 78.4195 20.9985 75.947 22.967C74.4612 24.1499 73.0374 25.4148 71.5975 26.657C71.1781 27.0188 70.7992 27.4296 70.3849 27.8343C70.5543 28.0383 70.6994 28.2131 70.8938 28.439ZM116.911 60.1467C116.8 59.9067 116.701 59.6597 116.575 59.4276C115.825 58.0401 114.785 56.9018 113.621 55.8736C111.901 54.3546 109.99 53.1277 107.983 52.0506C105.182 50.5476 102.244 49.3873 99.2351 48.4072C98.7162 48.2382 98.1906 48.091 97.6477 47.9276C96.1741 52.7584 94.3599 57.3937 92.3001 61.936C94.4398 66.5533 96.3368 71.2628 97.8604 76.1405C98.0417 76.0883 98.1951 76.047 98.3467 76C100.697 75.2709 103.001 74.4112 105.235 73.368C108.159 72.0025 110.954 70.4166 113.407 68.2601C114.662 67.1569 115.789 65.9408 116.578 64.4392C117.286 63.092 117.516 61.6893 116.911 60.1467ZM91.6891 72.7108C91.032 71.0019 90.3786 69.2913 89.6028 67.5493C87.5909 71.4883 85.4589 75.2648 83.1945 78.9632C83.178 78.9902 83.1706 79.0239 83.1631 79.0555C83.1595 79.0707 83.1621 79.0901 83.1686 79.1044C83.1739 79.116 83.1893 79.1228 83.2435 79.1675C84.8839 78.9095 86.5624 78.6514 88.2389 78.3805C90.9609 77.9407 92.9048 77.5155 93.2859 77.2701C92.7621 75.7822 92.2347 74.2842 91.6891 72.7108ZM66.1483 91.7062C66.4859 92.0836 66.8235 92.4611 67.1861 92.8666C69.4639 90.2948 71.5767 87.6239 73.6265 84.7513C73.1462 84.791 72.7938 84.8386 72.4405 84.8462C70.5872 84.8862 68.7338 84.9339 66.8803 84.9435C65.4824 84.9507 64.0841 84.9086 62.686 84.8806C62.0156 84.8671 61.3454 84.8354 60.6244 84.8102C60.7279 84.9693 60.7996 85.0961 60.8868 85.2105C61.276 85.7213 61.6584 86.2382 62.0638 86.7354C63.4041 88.3796 64.7533 90.0163 66.1483 91.7062ZM66.8886 31.4661C66.2631 32.187 65.6165 32.8901 65.0165 33.6325C63.5986 35.387 62.2023 37.1599 60.8002 38.9277C60.7367 39.0078 60.7015 39.1114 60.6468 39.2162C62.8058 39.1674 64.919 39.0821 67.0321 39.0825C69.1512 39.0829 71.2703 39.1687 73.4525 39.2186C73.3409 39.0501 73.2778 38.9379 73.1992 38.8385C71.7587 37.0168 70.3236 35.1905 68.8702 33.3794C68.3655 32.7504 67.8183 32.1566 67.2809 31.5557C67.1996 31.4647 67.1289 31.2576 66.8886 31.4661ZM89.9148 55.5001C91.0883 52.6265 92.1509 49.7122 93.0581 46.7133C89.7572 45.9529 86.483 45.3723 83.0839 44.9346C85.4193 48.6882 87.5345 52.4522 89.5642 56.349C89.695 56.0276 89.7884 55.798 89.9148 55.5001ZM46.9747 51.632C48.2625 49.4116 49.5504 47.1911 50.8585 44.9359C47.5303 45.3602 44.2617 45.9197 41.0223 46.669C41.4844 48.4997 43.942 55.3649 44.5043 56.2408C45.3216 54.7217 46.1345 53.2108 46.9747 51.632Z" stroke="white" stroke-width="24" mask="url(#path-1-outside-1_52_20)"/>
<path d="M66.1199 50.5327C68.906 50.4768 71.3764 51.3858 73.4763 53.2446C75.3174 54.8744 76.5077 56.9249 76.9822 59.3774C77.5642 62.3857 77.0355 65.2268 75.3328 67.7729C73.5923 70.3754 71.1328 71.9972 68.0544 72.4878C63.4146 73.2273 58.9901 70.8812 56.8494 66.8237C56.1277 65.4558 55.7116 64.0052 55.5857 62.4604C55.3725 59.8436 56.0394 57.4736 57.4539 55.3003L57.4617 55.2886L57.4705 55.2759C58.5929 53.6583 60.0099 52.4192 61.7556 51.5806C63.1321 50.9193 64.5879 50.5635 66.1199 50.5327Z" fill="#1142D8" stroke="white" stroke-width="2"/>
</svg>
