
    <svg
      width="12"
      height="12"
      viewBox="0 0 12 12"
      fill="none"
      xmlns="http://www.w3.org/2000/svg"
    >
      <path
        d="M5.87256 0.309082C6.82484 0.366131 7.70021 0.644388 8.48584 1.15674C8.48901 1.13856 8.49018 1.11967 8.49463 1.10107C8.57601 0.761178 8.90084 0.521095 9.24268 0.529785C9.60728 0.539242 9.9152 0.793158 9.979 1.15576H9.97998C9.99166 1.22229 9.99663 1.28803 9.99658 1.354C9.99616 1.85217 9.99612 2.3561 9.99561 2.85498C9.9951 3.21607 9.78174 3.52724 9.41553 3.6167C9.31535 3.64114 9.21732 3.64479 9.14502 3.64502C8.67268 3.64655 8.20021 3.64517 7.729 3.64502C7.54355 3.64496 7.2812 3.61706 7.08057 3.39111C6.87921 3.16434 6.82717 2.88088 6.93701 2.59912C7.00581 2.42283 7.12123 2.29521 7.26611 2.21631C6.95618 2.06367 6.6272 1.95434 6.27783 1.88916C5.97956 1.83354 5.67858 1.81474 5.37842 1.83447C4.57894 1.88714 3.86538 2.15748 3.24268 2.65771C2.62739 3.15202 2.20966 3.77759 1.98096 4.53564C1.85471 4.95414 1.80628 5.38297 1.83252 5.81885C1.87834 6.57977 2.1297 7.26552 2.59033 7.87354C3.07023 8.50689 3.69013 8.94335 4.44678 9.19385C4.71159 9.28151 4.98739 9.33287 5.27295 9.35693C5.81794 9.4028 6.34539 9.33818 6.85889 9.15674C7.37657 8.97374 7.83245 8.69136 8.22607 8.31006C8.68363 7.86682 9.00925 7.34215 9.20166 6.73486C9.28438 6.47371 9.33525 6.20349 9.36182 5.92432C9.36728 5.86678 9.36711 5.8107 9.36865 5.72998C9.37007 5.65573 9.37309 5.56367 9.39014 5.46729C9.46322 5.0542 9.81987 4.81506 10.2261 4.84619C10.6002 4.87504 10.8961 5.21186 10.8999 5.58057C10.9066 6.23686 10.7891 6.8713 10.5581 7.48193C10.2635 8.26065 9.80686 8.93528 9.19482 9.49756C8.48528 10.1493 7.65374 10.581 6.70752 10.7827C6.25388 10.8794 5.79562 10.9163 5.33447 10.894C4.84175 10.8703 4.35889 10.7787 3.88525 10.6147V10.6138C3.17575 10.3709 2.55159 9.99587 2.00635 9.49268C1.49381 9.0196 1.08825 8.46579 0.794434 7.83252C0.567784 7.344 0.420758 6.83288 0.349121 6.29932C0.289432 5.85471 0.282971 5.40786 0.339355 4.96045C0.480019 3.84448 0.926655 2.8582 1.68896 2.02588C2.42246 1.22509 3.32584 0.696799 4.38232 0.443848C4.87032 0.327029 5.36927 0.27896 5.87256 0.309082Z"
        fill="#FAFAFA"
        stroke="#FAFAFA"
        strokeWidth="0.6"
      />
    </svg>