    <svg className="middle-nav-svg"
      width="200"
      height="100"
      viewBox="0 0 156 76"
      fill="#202020"
      xmlns="http://www.w3.org/2000/svg"
    >
      <path
        d="M149.226 23.3194L148.602 23.2103C147.729 22.992 146.973 23.1157 146.059 23.0581C144.259 23.0456 142.522 23.3893 140.794 23.7742C140.44 23.8531 139.952 23.9217 139.892 24.272C139.693 25.4224 139.496 26.4842 139.122 27.9029L138.373 30.4129C138.248 30.8494 138.248 30.8494 137.989 31.5224C135.261 39.2241 130.563 45.9411 124.524 51.9746C113.452 63.0372 99.8842 70.6035 83.5279 74.1821C76.6806 75.6803 69.7095 76.2919 62.6453 75.8691C52.0214 75.2331 42.1651 72.6413 33.4837 67.0771C31.2959 65.6749 29.297 64.0839 27.5406 62.2754C26.9818 61.6999 26.4379 61.5627 25.5949 61.7672C21.942 62.6532 18.2276 63.3209 14.4191 63.1771C9.82423 63.0035 5.63312 61.9186 2.71831 58.4887C0.475023 55.849 -0.14955 52.8209 0.0286319 49.6157C0.664181 38.1833 13.7232 27.4576 26.9282 25.9449C30.8926 25.4908 34.6584 25.8437 37.9896 27.9399C42.0518 30.4961 43.5557 35.247 41.814 39.9068C40.4479 43.5617 37.9287 46.4689 34.2368 48.568C32.7119 49.435 31.046 49.9992 29.1866 49.885C26.9551 49.748 25.535 48.0148 26.2193 46.3099C26.295 46.1214 26.3463 45.8672 26.6853 45.8885C26.8555 45.9849 26.8472 46.1233 26.8362 46.2717C26.6792 48.3855 28.1934 49.4749 30.5873 48.9988C32.2267 48.6727 33.5285 47.8665 34.7501 46.9044C39.0742 43.4989 40.6745 36.9611 38.1533 32.6939C36.3745 29.6832 33.4492 28.0579 29.6517 27.6446C23.3893 26.963 18.0253 28.9822 13.2155 32.1969C7.49939 36.0174 3.69129 41.0002 2.46381 47.2891C1.8978 50.1889 2.05944 53.0887 3.45349 55.8475C5.28142 59.465 8.57975 61.3621 12.9254 61.9929C17.3433 62.6343 21.5872 61.7692 25.7986 60.8463C25.9805 60.3361 25.5459 60.1234 25.3336 59.8446C22.4467 56.0542 20.2599 52.0379 20.6341 47.3415C20.9719 43.1027 23.0599 39.6677 27.3404 37.4513C28.8727 36.6579 30.5485 36.2225 32.353 36.7519C33.7925 37.1742 34.4564 38.3178 33.9215 39.4267C33.6186 39.44 33.6403 39.2246 33.5953 39.0628C33.2567 37.8455 32.3294 37.186 30.9119 37.2841C29.2634 37.3981 27.8167 37.9847 26.2831 39.0347C27.5634 39.0691 28.6704 39.0206 29.1039 40.0886C29.2861 40.5375 29.2448 40.9425 28.6188 41.2568C28.2372 40.8602 28.2773 40.1121 27.4259 40.0738C26.4393 40.0294 25.6253 40.3672 24.9235 40.8993C22.6397 42.6312 21.6823 44.9507 21.549 47.4839C21.2873 52.46 23.9607 56.3435 27.857 59.714C28.4072 60.19 28.9822 60.0055 29.5912 59.8261C33.9654 58.5376 38.2343 57.0106 42.5939 55.4555C46.5789 54.0597 50.4377 52.6109 54.4326 51.4721C55.0421 51.2983 55.5645 51.0659 55.8533 50.5053C56.069 50.0866 56.5646 49.687 57.0362 49.9017C58.2059 50.4342 59.2142 49.9336 60.2788 49.715C60.4744 49.6748 60.6714 49.5779 60.8806 49.7402C60.9804 50.1851 60.5088 50.1419 60.2564 50.2231C59.2922 50.5333 58.2673 50.6923 57.7977 51.6977C57.5908 52.1405 56.9266 52.2198 56.4838 51.9599C55.7932 51.5545 55.2283 51.8201 54.6112 52.0291C47.4045 54.47 40.3677 57.2774 33.1255 59.6429C31.9405 60.0299 30.6763 60.2736 29.4826 60.9368C30.4212 61.8505 31.5092 62.4418 32.5759 63.0387C39.5261 66.9278 47.1723 69.2078 55.311 70.0459C79.1945 72.5053 99.9003 66.1072 117.869 52.4437C124.609 47.3183 130.17 41.3203 134.431 34.4301C134.698 33.9986 134.756 33.905 135.504 32.7046L136.751 29.7581C137.001 28.885 137.567 28.1405 137.843 27.0679C138.041 26.2956 138.408 25.555 138.452 24.6573C137.664 24.6236 137.053 24.9357 136.427 25.1591C134.617 25.8049 132.807 26.4428 130.849 26.673C129.778 26.7989 128.764 26.6265 127.84 26.1717C126.44 25.4823 126.3 24.0791 127.587 23.246C127.877 23.9341 127.845 24.7639 128.816 25.1059C129.916 25.4932 131.04 25.451 132.13 25.2586C134.213 24.8909 136.163 24.1346 138.15 23.4918C138.575 23.3543 138.831 23.1083 138.859 22.6859C139.022 20.2008 139.038 17.7334 137.739 15.423C136.797 13.7501 135.428 12.5084 133.284 12.0369C132.321 11.8251 131.455 12.0018 130.707 12.5279C129.899 13.0959 129.915 13.6482 130.669 14.5811C129.588 14.7491 128.938 14.0277 129.27 13.0273C129.716 11.6817 131.483 10.7801 133.246 11.0468C136.445 11.5308 138.181 13.4454 139.214 15.9308C139.957 17.7204 140.183 19.6018 140.065 21.5109C140.039 21.9347 139.933 22.3802 140.273 22.9067C141.973 22.6613 143.69 22.2457 145.458 22.1714C148.49 22.0441 151.391 22.3753 153.665 24.3536C155.945 26.3357 156.573 28.7227 155.471 31.3678C154.417 33.8984 152.357 35.4596 149.244 35.7815C147.707 35.9404 146.335 35.556 145.457 34.3483C144.912 33.5982 144.983 32.8089 145.623 32.1119C146.077 31.6174 146.69 31.4268 147.404 31.6531C147.542 31.6967 147.648 31.8177 147.905 31.9996C146.881 32.2855 145.92 32.5733 146.384 33.6823C146.731 34.5097 148.117 35.0594 149.339 34.8821C151.845 34.5182 153.847 32.7117 154.492 30.2315C155.21 27.4735 153.49 24.6506 150.525 23.6885C149.979 23.5112 149.85 23.4285 149.226 23.3194ZM85.4066 71.6174C91.6548 70.0522 101.934 66.0188 103.778 64.4151C85.3767 73.0503 66.0599 75.5334 45.6933 70.9095C58.7781 74.9369 71.9539 74.9511 85.4066 71.6174Z"
        fill="#202020"
      />
      <path
        d="M112.56 15.326C113.625 15.2533 114.515 14.9239 115.345 14.5026C116.236 14.0501 116.992 14.1277 117.742 14.7202C118.529 15.3427 118.898 16.0277 118.437 16.9595C117.258 19.3457 116.078 21.7323 114.957 24.1398C114.31 25.528 113.719 26.9441 113.704 28.4801C113.699 28.9691 113.724 29.4713 114.277 29.7348C114.875 30.0193 115.416 29.7664 115.902 29.4575C116.687 28.9587 117.327 28.3306 117.906 27.6531C119.793 25.4447 121.292 23.0332 122.725 20.5859C122.919 20.2552 123.05 19.6632 123.627 19.8715C124.288 20.11 123.91 20.6396 123.711 21.0107C122.054 24.1033 120.163 27.0757 117.692 29.7348C117.3 30.1564 116.825 30.5308 116.335 30.8673C114.973 31.8028 113.479 32.2724 111.8 31.5623C110.121 30.8523 109.583 29.5146 109.565 28.0138C109.538 25.7979 110.525 23.7962 111.491 21.8066C112.032 20.6946 112.644 19.6097 113.221 18.5112C113.41 18.1509 113.667 17.8052 113.608 17.3807C111.674 17.1346 110.998 17.4682 110.257 18.8785C107.682 23.7764 104.943 28.5942 101.081 32.8403C100.212 33.7959 99.1872 34.6048 97.8529 35.0377C95.7401 35.7233 93.8483 34.7351 93.5034 32.7814C93.2362 31.2674 93.6677 29.807 93.8456 28.2785C93.2014 29.2358 92.5536 30.1913 91.9138 31.1509C90.8158 32.7977 89.6368 34.3969 88.3014 35.9045C88.1222 36.1069 87.9408 36.3091 87.7442 36.4983C86.0893 38.0913 84.1739 38.5959 82.5179 37.8802C80.9731 37.2126 80.3258 35.5224 80.8235 33.4294C81.452 30.7862 82.8272 28.3881 84.0228 25.9306C84.4323 25.089 84.8269 24.2396 85.1656 23.3749C85.2921 23.0518 85.4394 22.6133 85.0055 22.3662C84.5848 22.1266 84.1915 22.3856 83.8693 22.6112C82.7492 23.3952 81.8514 24.3689 81.0176 25.3759C77.287 29.8811 74.3738 34.7761 72.1992 40C71.8546 40.8277 71.4408 41.0705 70.4943 40.9833C67.7691 40.7321 67.6363 40.5886 68.4075 38.3066C71.089 30.3717 73.686 22.4122 77.0312 14.6646C78.7204 10.7526 80.6102 6.91909 83.2919 3.43109C84.1596 2.30253 85.0991 1.21625 86.4727 0.517373C88.6492 -0.589974 90.337 0.117231 90.7239 2.2846C91.005 3.85905 90.4807 5.34164 89.9441 6.8012C88.0889 11.8481 84.9121 16.2847 81.517 20.6092C80.1198 22.3889 78.6039 24.0966 77.1703 25.8547C75.9806 27.3138 75.7836 29.0705 75.0535 30.9543C75.8564 30.5857 76.0097 30.1602 76.2563 29.7994C78.255 26.8748 80.2264 23.9328 83.0854 21.5563C83.9089 20.8717 84.765 20.2387 85.8693 19.9182C87.6697 19.3956 89.1618 20.2103 89.3674 21.8736C89.4904 22.8688 89.3625 23.851 88.9403 24.7909C87.8995 27.1078 86.8504 29.4218 85.8132 31.74C85.3239 32.8336 84.9409 33.9548 84.7365 35.1197C84.6694 35.5022 84.6859 35.8923 85.0641 36.1182C85.512 36.3857 85.9449 36.1751 86.3223 35.9171C87.4936 35.1165 88.362 34.0791 89.172 33.0111C92.7242 28.328 95.5883 23.3175 98.1653 18.1809C98.6206 17.2735 99.073 17.0881 100.041 17.5118C101.746 18.2575 102.2 19.0297 101.568 20.5922C100.437 23.3879 99.2135 26.1545 98.0777 28.9486C97.6726 29.9451 97.3006 30.9693 97.3671 32.0555C97.4281 33.0518 97.8958 33.2814 98.9209 32.8417C100.016 32.372 100.73 31.5389 101.413 30.715C104.547 26.9352 107.029 22.8281 109.222 18.5788C109.517 18.0062 109.52 17.6426 108.776 17.2496C107.207 16.4205 106.915 15.0644 107.294 13.5963C107.679 12.1054 108.477 10.8188 110.258 10.3153C111.504 9.96289 112.49 10.6608 112.669 11.9158C112.791 12.7684 112.577 13.5884 112.316 14.4067C112.22 14.7057 111.823 15.1014 112.56 15.326ZM81.1373 14.6856C80.1756 17.1934 79.0452 19.6552 78.4104 22.2673C79.4607 21.4337 80.1382 20.3853 80.8867 19.389C83.9695 15.2861 86.9201 11.1197 88.6413 6.3905C89.0622 5.23406 89.3977 4.05904 89.2753 2.83411C89.1933 2.01313 88.6514 1.81455 87.9316 2.33737C87.1469 2.90743 86.6606 3.69241 86.1676 4.45569C84.1016 7.65466 82.6272 11.0802 81.1373 14.6856ZM110.805 12.9357C110.692 13.3073 110.586 13.678 110.939 14.0445C111.408 13.659 111.401 13.2162 111.302 12.8044C111.234 12.5205 111.018 12.6739 110.805 12.9357Z"
        fill="#202020"
      />
      <path
        d="M90 52.4763C89.9217 54.7811 89.2378 56.7699 87.1709 58.2308C86.3595 58.8042 85.4728 59.2521 84.2317 58.8396C84.6691 58.294 85.3922 58.3636 85.8632 58.0456C87.3779 57.0231 88.0995 55.6396 88.3339 54.059C88.9013 50.232 86.6484 47.0493 82.465 45.5678C78.6935 44.2321 74.7613 44.1794 70.8606 44.6889C58.4638 46.3083 37.2808 56.9717 37.2808 56.9717C37.2808 56.9717 36.2386 57.364 35.6629 56.9189C33.5206 55.2628 35.1632 53.165 35.1632 53.165C35.1632 53.165 46.1757 38.9882 51.6147 31.8618C52.3949 30.8396 53.259 30.226 54.6837 30.1877C55.9267 30.1542 57.1676 30.0647 58.4095 30C58.506 30.0821 58.6025 30.1643 58.6991 30.2464C53.5159 37.0522 43.1496 50.6638 43.1496 50.6638C43.1496 50.6638 43.3037 50.7863 43.3808 50.8475C44.3587 50.3922 45.3391 49.9405 46.3143 49.4808C53.6709 46.0129 61.4092 43.4982 69.7726 42.5625C74.3101 42.0548 78.8116 42.0631 83.0347 43.8315C87.1568 45.5576 89.7405 48.2845 90 52.4763Z"
        fill="#202020"
      />
      <path
        d="M40.1842 23.0383C40.0406 23.2152 39.9499 23.3349 39.8342 23.4349C39.7862 23.4763 39.685 23.4754 39.6094 23.4933C39.3309 23.3978 39.3966 23.208 39.4549 23.0499C40.8532 19.2586 39.6754 15.8578 37.1747 12.6545C36.5323 11.8315 35.7515 11.079 35.3254 10.1454C34.7537 8.89264 34.9167 7.71299 35.9619 6.69029C36.813 5.85746 37.9605 5.52134 39.2727 5.71155C39.6973 5.77311 40.2083 5.80018 40.4181 6.25819C39.9855 6.56085 39.5176 6.32071 39.0831 6.34463C38.0196 6.40316 37.1523 6.70927 36.8518 7.61912C36.5465 8.54346 37.2529 9.06893 38.1241 9.45617C39.7657 10.1858 41.5663 10.4051 43.3913 10.4856C48.2089 10.6982 52.9344 10.124 57.5966 9.19766C62.5902 8.20554 67.456 6.89979 71.9219 4.72962C72.7998 4.303 73.6689 3.86584 74.4203 3.29016C74.946 2.88747 75.4057 2.91989 75.9811 3.2887C78.5268 4.92038 78.535 4.90567 76.7331 7.14607C72.0598 12.9565 67.3805 18.7637 62.7328 24.5882C62.2423 25.2028 61.6702 25.5215 60.7934 25.5887C59.1316 25.716 57.4964 26.0969 55.4783 25.9769C60.2975 19.9914 64.993 14.1596 69.6886 8.32769C69.6184 8.24659 69.5483 8.16549 69.4782 8.08439C60.3606 11.7048 51.1978 15.1675 40.4694 13.9105C41.7951 16.9821 42.091 20.0151 40.1842 23.0383Z"
        fill="#202020"
      />
      <path
        d="M68.4253 24.5C69.2691 24.8196 68.7001 25.2115 68.5 25.4899C67.5798 26.7703 66.2011 27.5318 64.6636 28.0491C62.2086 28.875 59.6266 29.0966 57.0399 29.2611C54.6682 29.4118 52.3024 29.6159 49.9727 30.0525C48.13 30.3979 46.3874 30.9636 45.1087 32.5C44.6455 31.7894 44.9625 31.3168 45.2454 30.8767C46.3127 29.2162 47.9682 28.2576 49.9621 27.7575C52.8028 27.045 55.746 26.9641 58.6517 26.6582C61.9812 26.3078 65.3408 26.0822 68.4253 24.5Z"
        fill="#202020"
      />
      <path
        d="M102.842 15.4074C102.52 15.7847 101.925 15.9538 101.031 16C99.1852 16.0031 98.7443 15.5488 99.1267 14.6817L99.8931 13.2278L101.968 13C104.043 13.2278 104.851 13.0581 102.842 15.4074Z"
        fill="#202020"
      />
      <path
        d="M96.8766 40.4526C95.1951 40.9457 93.6142 41.417 92.022 41.8603C91.6834 41.9546 91.2021 42.1901 91.0256 41.6989C90.8943 41.3336 91.294 41.2005 91.631 41.1C98.871 38.9426 106.2 37.003 113.507 35.0089C113.614 34.9799 113.752 35.0299 113.875 35.0431C113.917 35.1439 113.958 35.2447 114 35.3456C108.324 37.0373 102.649 38.729 96.8766 40.4526Z"
        fill="#202020"
      />
      <path
        d="M89.3505 42.9865C88.9434 42.7268 88.8874 42.429 89.2011 42.1353C89.4218 41.9288 89.6995 41.9625 89.8759 42.2104C90.1042 42.5315 90.011 42.8054 89.6502 42.9794C89.5797 43.0134 89.4832 42.9976 89.3505 42.9865Z"
        fill="#202020"
      />
    </svg>