<svg width="200" height="108" viewBox="0 0 200 108" fill="none" xmlns="http://www.w3.org/2000/svg">
<path d="M0.0330088 83.6136C1.03087 81.2766 1.66174 79.8577 2.36318 78.2443C6.50777 68.712 11.7192 60.1101 20.2248 55.5944C71.8566 28.1831 104.288 112.584 147.882 71.6271C148.434 71.1087 149.259 71.0238 148.922 72.1651C142.921 92.4807 126.53 103.111 109.709 106.961C73.4757 115.257 54.8774 71.1331 20.6481 71.9646C14.28 72.1192 7.90571 77.8691 3.13836 82.293C2.2137 83.151 1.03078 84.8106 0.430482 85.172C-0.169812 85.5333 0.0330088 83.6136 0.0330088 83.6136Z" fill="#00F3F3"/>
<path d="M198.374 26.2848C198.828 25.9024 199.286 25.5237 199.916 24.9978C199.977 25.6091 200.012 25.953 199.996 26.3603C195.649 34.2283 193.818 39.7343 187.237 45.8918C137.534 92.3943 99.413 -2.82793 52.9144 36.1495C52.4044 36.577 51.9191 37.0279 51.4225 37.4681C51.2817 37.4032 51.1408 37.3383 51 37.2734C51.1976 36.5963 51.3653 35.9107 51.603 35.245C51.7676 34.7841 52.0646 34.3614 52.2395 33.9026C52.6969 32.7026 52.9601 31.4161 53.6193 30.3159C53.9835 29.7081 54.5071 29.2234 54.4935 28.4706C54.4905 28.3084 54.7739 28.1533 54.8879 27.9758C55.0913 27.659 55.2888 27.336 55.4453 26.9996C55.5624 26.748 55.5456 26.4344 55.7019 26.2118C109.256 -50.0578 148.097 68.6707 198.374 26.2848Z" fill="#00F3F3"/>
</svg>
