<svg width="513" height="354" viewBox="0 0 513 354" fill="none" xmlns="http://www.w3.org/2000/svg">
<path d="M417.992 140.575C435.562 148.659 453.031 155.995 468.95 166.61C486.239 178.139 498.748 193.44 505.651 212.72C512.382 231.515 514.507 250.981 510.748 271.067C508.831 281.307 506.333 291.127 501.614 300.343C492.23 318.665 477.856 331.848 459.273 340.431C431.248 353.376 401.659 355.446 371.401 352.778C343.424 350.31 318.024 340.971 295.702 323.924C282.437 313.794 272.318 300.831 264.408 286.123C262.341 282.28 262.878 280.019 266.901 277.71C283.649 268.099 300.215 258.171 316.812 248.3C319.754 246.551 321.84 246.621 323.87 249.802C328.261 256.686 333.044 263.33 338.823 269.134C351.282 281.644 366.622 287.289 384.067 288.45C396.194 289.258 407.931 288.461 419.184 283.596C444.173 272.794 444.597 239.158 422.156 224.971C412.248 218.707 401.529 214.21 390.952 209.399C373.242 201.346 355.145 194.176 338.033 184.786C318.919 174.298 302.381 161.08 293.065 140.961C283.123 119.487 279.963 97.0434 285.437 73.474C293.52 38.6704 315.899 17.6916 348.469 6.04196C360.305 1.80841 372.433 -0.351597 385.119 0.0467495C398.402 0.463833 411.73 -0.423069 424.826 2.77276C448.666 8.59027 468.32 20.7855 482.88 40.7355C485.622 44.4918 487.995 48.5162 490.564 52.3995C492.468 55.2782 492.251 57.4268 489.042 59.4103C472.185 69.8307 455.398 80.3646 438.632 90.9296C435.548 92.8726 434.03 91.795 432.334 88.9333C427.228 80.3173 422.003 71.5171 412.466 67.1237C396.976 59.9876 381.306 59.1961 366.451 68.7227C358.479 73.8353 355.069 86.4601 356.417 95.7861C358.872 112.77 371.7 119.457 384.801 125.854C395.556 131.106 406.686 135.588 417.992 140.575Z" fill="#3178C6"/>
<path d="M202.227 72.6096C190.895 72.6241 180.062 72.6506 169.229 72.6465C161.417 72.6436 161.41 72.6255 161.413 80.2494C161.434 132.746 161.463 185.242 161.479 237.739C161.489 271.903 161.483 306.068 161.475 340.232C161.474 347.202 161.209 347.481 154.099 347.489C135.267 347.509 116.435 347.504 97.603 347.49C91.5555 347.486 90.9969 346.958 90.988 340.978C90.931 302.481 91.2334 263.979 90.7722 225.487C90.1933 177.166 91.4452 128.852 90.9036 80.5345C90.8155 72.6724 90.8714 72.6691 82.9298 72.6683C58.0981 72.6658 33.2664 72.6649 8.43477 72.6644C0.984636 72.6642 0.0740834 71.8139 0.0494564 64.3538C-7.36229e-05 49.3551 -0.00317093 34.3561 0.00162007 19.3573C0.00419907 11.2442 0.0364094 11.1993 7.9955 11.1976C73.3243 11.1839 138.653 11.189 203.982 11.1793C218.648 11.1771 233.315 11.2663 247.977 11.0454C252.83 10.9724 254.397 12.9198 254.342 17.5708C254.155 33.4002 254.266 49.2329 254.184 65.0639C254.148 71.8738 253.287 72.6428 246.222 72.6471C231.724 72.6558 217.226 72.6237 202.227 72.6096Z" fill="#3178C6"/>
</svg>
