<svg width="130" height="100" viewBox="0 0 130 100" fill="none" xmlns="http://www.w3.org/2000/svg">
<path d="M0 10C0 4.47716 4.47715 0 10 0H120C125.523 0 130 4.47715 130 10V90C130 95.5228 125.523 100 120 100H10C4.47715 100 0 95.5229 0 90V10Z" fill="#272727"/>
<path d="M93.1737 14.5117C93.5344 14.5088 93.7921 14.5726 94.0028 14.6895C94.2167 14.8081 94.4223 15.0034 94.6434 15.3271C100.388 23.7378 100.266 34.3233 94.3553 42.833C91.5646 46.8508 88.0096 49.9605 84.2284 52.8955C82.2552 54.4271 80.2119 55.8497 78.1591 57.2891C76.1099 58.7258 74.0524 60.1783 72.0721 61.7578C69.4577 63.8432 66.9707 66.1569 65.2343 69.2773C65.1176 69.4869 65.0418 69.576 64.9901 69.6104C64.9748 69.6205 64.9664 69.6223 64.9569 69.623C64.9437 69.624 64.9026 69.624 64.8241 69.5938C62.1516 68.5634 60.0541 66.8919 58.8993 64.0703C58.2454 62.4725 58.4055 60.9481 59.2997 59.4785C60.9189 56.8175 63.1687 54.8203 65.5389 52.8545C68.6471 50.2768 71.9827 48.0896 75.2821 45.7178C77.1432 44.3799 78.9716 42.9803 80.8573 41.5723L80.8807 41.5547C82.6205 40.0884 84.3063 38.597 85.6844 36.7295C89.4419 31.6376 89.5375 25.7763 85.9755 20.5234C84.3216 18.0847 82.2437 16.1734 79.9569 14.5283C84.3561 14.5218 88.7678 14.5474 93.1737 14.5117Z" fill="#DBDBDB" stroke="#DBDBDB"/>
<path d="M66.3916 30.5137C66.4157 30.502 66.466 30.4814 66.5957 30.5342C69.5239 31.727 71.7541 33.5669 72.6328 36.8994C72.9723 38.1872 72.8109 39.3427 72.1201 40.4404C70.4641 43.0718 68.2326 45.0923 65.876 47.0693C62.0987 50.2381 58.0035 52.7733 54.0107 55.7402C51.0974 57.9051 48.1412 60.1377 45.8145 63.1934C41.9233 68.3038 41.8269 74.4614 45.5518 79.7305C47.2023 82.0652 49.2392 83.9204 51.4502 85.541C51.4823 85.5645 51.5135 85.5889 51.5449 85.6123C51.5417 85.6123 51.5384 85.6123 51.5352 85.6123C47.0751 85.6221 42.6039 85.6027 38.1377 85.6396C37.7974 85.6424 37.5547 85.5816 37.3564 85.4717C37.1548 85.3598 36.959 85.1753 36.748 84.8691C33.8058 80.5994 32.3757 75.8178 32.5088 70.5137C32.5794 67.701 33.2116 64.9882 34.2744 62.3027C36.3473 57.3781 39.6219 53.5946 43.4277 50.2197C47.6182 46.5039 52.2097 43.4148 56.7666 40.166C60.3202 37.6325 63.7955 34.8698 66.1514 30.793C66.2594 30.606 66.3447 30.5365 66.3916 30.5137Z" fill="#DBDBDB" stroke="#DBDBDB"/>
<path d="M55.5277 63.167C56.1833 65.0405 57.1242 66.9804 58.3373 68.6221C59.5486 70.2613 61.0546 71.6321 62.85 72.3154C65.5729 73.3517 68.4053 73.5499 71.1752 73.5645C79.9443 73.6107 88.716 73.5733 97.4808 73.5723C97.7624 73.5722 97.9113 73.5549 98.1302 73.5645C98.1506 73.5653 98.1704 73.5679 98.1898 73.5693C98.1509 73.6187 98.1045 73.6703 98.0414 73.7334C97.98 73.7947 97.8907 73.8815 97.8129 73.9697C96.546 75.4053 95.2844 76.8357 93.9896 78.2285C93.7314 78.5063 93.5155 78.8368 93.5199 79.2373C93.5242 79.6346 93.7439 79.958 93.9916 80.2246C95.3345 81.67 96.6509 83.1441 97.9779 84.6182C98.1431 84.8016 98.2349 84.883 98.3383 85.0127C98.3108 85.0111 98.2801 85.0117 98.2455 85.0088C98.168 85.0023 98.0535 84.9911 97.9418 84.9912C89.007 84.9978 80.079 85.0434 71.1508 84.9678C67.775 84.9391 64.5053 84.3524 61.474 82.5352L61.4711 82.5332L61.1508 82.3379C57.8858 80.2608 55.9164 76.6378 55.0863 72.8213C54.3254 69.3229 54.5402 65.7431 55.5277 63.167Z" fill="#DBDBDB" stroke="#DBDBDB"/>
<path d="M69.7834 16.5541C77.0116 20.8194 78.3006 32.0662 75.5 37.5183C75.2119 37.4645 75.0785 36.7426 75 36.5183C73.7137 32.8414 71.3521 29.7758 68 28.5C65.3627 27.4963 62.5 26.4539 59.8225 26.4539C51.055 26.4077 42.2871 26.4451 33.5193 26.4461C33.075 26.4462 32.616 26.5124 32.1923 26.302C32.1787 25.739 32.5556 25.5095 32.8126 25.2182C34.0786 23.7836 35.3443 22.3477 36.6444 20.9493C37.1003 20.4589 37.0846 20.1107 36.642 19.6343C35.2956 18.1851 33.9758 16.7071 32.6507 15.2351C32.3863 14.9413 32.0605 14.6816 32 14.2327C32.3389 13.8899 32.7175 14.0271 33.0575 14.0269C41.9895 14.0203 50.9218 13.9746 59.8532 14.0503C63.2845 14.0794 66.6511 14.6762 69.7834 16.5541Z" fill="#DBDBDB"/>
</svg>
