<svg width="130" height="100" viewBox="0 0 130 100" fill="none" xmlns="http://www.w3.org/2000/svg">
<path d="M0 10C0 4.47716 4.47715 0 10 0H120C125.523 0 130 4.47715 130 10V90C130 95.5228 125.523 100 120 100H10C4.47715 100 0 95.5228 0 90V10Z" fill="#FAFAFA"/>
<path d="M75.3597 80.9077C70.6299 74.3023 65.989 67.8205 61.1462 61.0568C58.9116 63.7573 56.841 66.2335 54.7973 68.7347C50.1693 74.3987 45.5525 80.0731 40.9384 85.7499C40.5728 86.1998 40.2045 86.7054 39.6457 86.7675C35.9839 87.1743 32.3296 86.9227 28.776 86.9268C28.2942 85.4623 29.1302 84.9608 29.6333 84.3459C37.6388 74.5606 45.6287 64.7602 53.7057 55.0422C54.997 53.4886 55.037 52.5084 53.8141 50.8186C45.0781 38.7478 36.4633 26.5774 27.8115 14.4373C27.4441 13.9218 27.0229 13.4285 27 12.7399C27.6028 11.8076 28.4907 12.0457 29.2687 12.0428C35.7722 12.0191 42.276 12.0579 48.7791 12.0002C50.2928 11.9868 51.3109 12.5283 52.2264 13.8417C56.8377 20.4572 61.5297 27.0088 66.1972 33.5797C66.6045 34.1531 67.0395 34.7041 67.4491 35.2488C68.5961 34.9572 69.0584 33.9984 69.6716 33.2509C75.0764 26.6618 80.4729 20.0649 85.8581 13.4577C86.4649 12.7132 87.113 12.0735 88.0812 12.0689C91.2291 12.054 94.3773 12.0628 97.525 12.0987C97.8272 12.1021 98.1268 12.3579 98.5421 12.5493C97.9582 14.3585 96.6136 15.4565 95.5782 16.7361C88.8311 25.0746 82.059 33.3915 75.1782 41.6043C73.7235 43.3406 73.8611 44.4761 75.1099 46.2233C83.8189 58.408 92.4366 70.6668 101.067 82.9148C101.794 83.9455 102.711 84.8714 103 86.1858C102.525 87.1498 101.695 86.9416 100.988 86.9439C94.485 86.9648 87.9813 86.9351 81.478 86.9752C80.1917 86.9831 79.27 86.5412 78.5329 85.4027C77.5622 83.9034 76.4818 82.4847 75.3597 80.9077ZM79.0847 73.2445C79.9194 74.4009 80.7548 75.5566 81.5885 76.7138C83.289 79.0744 85.587 79.642 88.3782 78.3733C88.2809 77.4481 87.6666 76.8257 87.1803 76.141C83.1736 70.4995 79.1428 64.8773 75.1429 59.2303C66.3179 46.7714 57.5092 34.2993 48.6839 21.8405C48.1189 21.0429 47.6605 20.0069 46.5453 19.9732C44.7992 19.9205 43.0507 19.9593 40.959 19.9593C53.7058 37.7778 66.3036 55.3881 79.0847 73.2445Z" fill="#0F0F1B"/>
</svg>
